G04 #@! TF.GenerationSoftware,KiCad,Pcbnew,9.0.6*
G04 #@! TF.CreationDate,2025-11-13T20:31:41-08:00*
G04 #@! TF.ProjectId,doktuh-kb,646f6b74-7568-42d6-9b62-2e6b69636164,rev?*
G04 #@! TF.SameCoordinates,Original*
G04 #@! TF.FileFunction,Legend,Bot*
G04 #@! TF.FilePolarity,Positive*
%FSLAX46Y46*%
G04 Gerber Fmt 4.6, Leading zero omitted, Abs format (unit mm)*
G04 Created by KiCad (PCBNEW 9.0.6) date 2025-11-13 20:31:41*
%MOMM*%
%LPD*%
G01*
G04 APERTURE LIST*
G04 Aperture macros list*
%AMHorizOval*
0 Thick line with rounded ends*
0 $1 width*
0 $2 $3 position (X,Y) of the first rounded end (center of the circle)*
0 $4 $5 position (X,Y) of the second rounded end (center of the circle)*
0 Add line between two ends*
20,1,$1,$2,$3,$4,$5,0*
0 Add two circle primitives to create the rounded ends*
1,1,$1,$2,$3*
1,1,$1,$4,$5*%
G04 Aperture macros list end*
%ADD10C,0.300000*%
%ADD11C,0.150000*%
%ADD12C,0.100000*%
%ADD13C,0.125000*%
%ADD14C,0.200000*%
%ADD15C,0.010000*%
%ADD16C,0.120000*%
%ADD17C,1.397000*%
%ADD18O,2.200000X1.600000*%
%ADD19HorizOval,2.400000X-0.669131X-0.743145X0.669131X0.743145X0*%
%ADD20C,2.400000*%
%ADD21O,2.200000X1.500000*%
%ADD22O,2.400000X2.950000*%
%ADD23HorizOval,1.500000X1.449945X0.012653X-1.449945X-0.012653X0*%
%ADD24HorizOval,1.600000X0.259808X-0.150000X-0.259808X0.150000X0*%
%ADD25HorizOval,2.400000X-0.951057X-0.309017X0.951057X0.309017X0*%
%ADD26HorizOval,1.500000X0.303109X-0.175000X-0.303109X0.175000X0*%
%ADD27HorizOval,2.400000X-0.137500X-0.238157X0.137500X0.238157X0*%
%ADD28HorizOval,1.500000X1.262016X-0.714014X-1.262016X0.714014X0*%
%ADD29HorizOval,1.600000X0.289778X-0.077646X-0.289778X0.077646X0*%
%ADD30HorizOval,2.400000X-0.838671X-0.544639X0.838671X0.544639X0*%
%ADD31HorizOval,1.500000X0.338074X-0.090587X-0.338074X0.090587X0*%
%ADD32HorizOval,2.400000X-0.071175X-0.265630X0.071175X0.265630X0*%
%ADD33HorizOval,1.500000X1.403814X-0.363051X-1.403814X0.363051X0*%
%ADD34C,4.400000*%
%ADD35C,1.524000*%
%ADD36C,0.800000*%
%ADD37O,2.000000X1.600000*%
%ADD38HorizOval,1.600000X0.259808X0.150000X-0.259808X-0.150000X0*%
%ADD39HorizOval,2.400000X-0.207912X-0.978148X0.207912X0.978148X0*%
%ADD40HorizOval,1.500000X0.303109X0.175000X-0.303109X-0.175000X0*%
%ADD41HorizOval,2.400000X-0.137500X0.238157X0.137500X-0.238157X0*%
%ADD42HorizOval,1.500000X1.249362X0.735931X-1.249362X-0.735931X0*%
%ADD43HorizOval,1.600000X0.289778X0.077646X-0.289778X-0.077646X0*%
%ADD44HorizOval,2.400000X-0.453990X-0.891007X0.453990X0.891007X0*%
%ADD45HorizOval,1.500000X0.338074X0.090587X-0.338074X-0.090587X0*%
%ADD46HorizOval,2.400000X-0.071175X0.265630X0.071175X-0.265630X0*%
%ADD47HorizOval,1.500000X1.397264X0.387496X-1.397264X-0.387496X0*%
%ADD48C,0.500000*%
%ADD49C,1.000000*%
%ADD50R,0.900000X0.900000*%
%ADD51R,0.900000X1.250000*%
%ADD52R,0.900000X1.700000*%
G04 APERTURE END LIST*
D10*
X262558411Y-122114328D02*
X261701269Y-122114328D01*
X262129840Y-123614328D02*
X262129840Y-122114328D01*
X261201269Y-123614328D02*
X261201269Y-122114328D01*
X260558412Y-123614328D02*
X260558412Y-122828614D01*
X260558412Y-122828614D02*
X260629840Y-122685757D01*
X260629840Y-122685757D02*
X260772697Y-122614328D01*
X260772697Y-122614328D02*
X260986983Y-122614328D01*
X260986983Y-122614328D02*
X261129840Y-122685757D01*
X261129840Y-122685757D02*
X261201269Y-122757185D01*
X259272697Y-123542900D02*
X259415554Y-123614328D01*
X259415554Y-123614328D02*
X259701269Y-123614328D01*
X259701269Y-123614328D02*
X259844126Y-123542900D01*
X259844126Y-123542900D02*
X259915554Y-123400042D01*
X259915554Y-123400042D02*
X259915554Y-122828614D01*
X259915554Y-122828614D02*
X259844126Y-122685757D01*
X259844126Y-122685757D02*
X259701269Y-122614328D01*
X259701269Y-122614328D02*
X259415554Y-122614328D01*
X259415554Y-122614328D02*
X259272697Y-122685757D01*
X259272697Y-122685757D02*
X259201269Y-122828614D01*
X259201269Y-122828614D02*
X259201269Y-122971471D01*
X259201269Y-122971471D02*
X259915554Y-123114328D01*
X257486983Y-123185757D02*
X256772698Y-123185757D01*
X257629840Y-123614328D02*
X257129840Y-122114328D01*
X257129840Y-122114328D02*
X256629840Y-123614328D01*
X255558412Y-123542900D02*
X255701269Y-123614328D01*
X255701269Y-123614328D02*
X255986984Y-123614328D01*
X255986984Y-123614328D02*
X256129841Y-123542900D01*
X256129841Y-123542900D02*
X256201269Y-123400042D01*
X256201269Y-123400042D02*
X256201269Y-122828614D01*
X256201269Y-122828614D02*
X256129841Y-122685757D01*
X256129841Y-122685757D02*
X255986984Y-122614328D01*
X255986984Y-122614328D02*
X255701269Y-122614328D01*
X255701269Y-122614328D02*
X255558412Y-122685757D01*
X255558412Y-122685757D02*
X255486984Y-122828614D01*
X255486984Y-122828614D02*
X255486984Y-122971471D01*
X255486984Y-122971471D02*
X256201269Y-123114328D01*
X254844127Y-123614328D02*
X254844127Y-122614328D01*
X254844127Y-122900042D02*
X254772698Y-122757185D01*
X254772698Y-122757185D02*
X254701270Y-122685757D01*
X254701270Y-122685757D02*
X254558412Y-122614328D01*
X254558412Y-122614328D02*
X254415555Y-122614328D01*
X253701270Y-123614328D02*
X253844127Y-123542900D01*
X253844127Y-123542900D02*
X253915556Y-123471471D01*
X253915556Y-123471471D02*
X253986984Y-123328614D01*
X253986984Y-123328614D02*
X253986984Y-122900042D01*
X253986984Y-122900042D02*
X253915556Y-122757185D01*
X253915556Y-122757185D02*
X253844127Y-122685757D01*
X253844127Y-122685757D02*
X253701270Y-122614328D01*
X253701270Y-122614328D02*
X253486984Y-122614328D01*
X253486984Y-122614328D02*
X253344127Y-122685757D01*
X253344127Y-122685757D02*
X253272699Y-122757185D01*
X253272699Y-122757185D02*
X253201270Y-122900042D01*
X253201270Y-122900042D02*
X253201270Y-123328614D01*
X253201270Y-123328614D02*
X253272699Y-123471471D01*
X253272699Y-123471471D02*
X253344127Y-123542900D01*
X253344127Y-123542900D02*
X253486984Y-123614328D01*
X253486984Y-123614328D02*
X253701270Y-123614328D01*
X252558413Y-122614328D02*
X252558413Y-124114328D01*
X252558413Y-122685757D02*
X252415556Y-122614328D01*
X252415556Y-122614328D02*
X252129841Y-122614328D01*
X252129841Y-122614328D02*
X251986984Y-122685757D01*
X251986984Y-122685757D02*
X251915556Y-122757185D01*
X251915556Y-122757185D02*
X251844127Y-122900042D01*
X251844127Y-122900042D02*
X251844127Y-123328614D01*
X251844127Y-123328614D02*
X251915556Y-123471471D01*
X251915556Y-123471471D02*
X251986984Y-123542900D01*
X251986984Y-123542900D02*
X252129841Y-123614328D01*
X252129841Y-123614328D02*
X252415556Y-123614328D01*
X252415556Y-123614328D02*
X252558413Y-123542900D01*
X250986984Y-123614328D02*
X251129841Y-123542900D01*
X251129841Y-123542900D02*
X251201270Y-123400042D01*
X251201270Y-123400042D02*
X251201270Y-122114328D01*
X249772699Y-123614328D02*
X249772699Y-122828614D01*
X249772699Y-122828614D02*
X249844127Y-122685757D01*
X249844127Y-122685757D02*
X249986984Y-122614328D01*
X249986984Y-122614328D02*
X250272699Y-122614328D01*
X250272699Y-122614328D02*
X250415556Y-122685757D01*
X249772699Y-123542900D02*
X249915556Y-123614328D01*
X249915556Y-123614328D02*
X250272699Y-123614328D01*
X250272699Y-123614328D02*
X250415556Y-123542900D01*
X250415556Y-123542900D02*
X250486984Y-123400042D01*
X250486984Y-123400042D02*
X250486984Y-123257185D01*
X250486984Y-123257185D02*
X250415556Y-123114328D01*
X250415556Y-123114328D02*
X250272699Y-123042900D01*
X250272699Y-123042900D02*
X249915556Y-123042900D01*
X249915556Y-123042900D02*
X249772699Y-122971471D01*
X249058413Y-122614328D02*
X249058413Y-123614328D01*
X249058413Y-122757185D02*
X248986984Y-122685757D01*
X248986984Y-122685757D02*
X248844127Y-122614328D01*
X248844127Y-122614328D02*
X248629841Y-122614328D01*
X248629841Y-122614328D02*
X248486984Y-122685757D01*
X248486984Y-122685757D02*
X248415556Y-122828614D01*
X248415556Y-122828614D02*
X248415556Y-123614328D01*
X247129841Y-123542900D02*
X247272698Y-123614328D01*
X247272698Y-123614328D02*
X247558413Y-123614328D01*
X247558413Y-123614328D02*
X247701270Y-123542900D01*
X247701270Y-123542900D02*
X247772698Y-123400042D01*
X247772698Y-123400042D02*
X247772698Y-122828614D01*
X247772698Y-122828614D02*
X247701270Y-122685757D01*
X247701270Y-122685757D02*
X247558413Y-122614328D01*
X247558413Y-122614328D02*
X247272698Y-122614328D01*
X247272698Y-122614328D02*
X247129841Y-122685757D01*
X247129841Y-122685757D02*
X247058413Y-122828614D01*
X247058413Y-122828614D02*
X247058413Y-122971471D01*
X247058413Y-122971471D02*
X247772698Y-123114328D01*
X244772699Y-122828614D02*
X245272699Y-122828614D01*
X245272699Y-123614328D02*
X245272699Y-122114328D01*
X245272699Y-122114328D02*
X244558413Y-122114328D01*
X243772699Y-123614328D02*
X243915556Y-123542900D01*
X243915556Y-123542900D02*
X243986985Y-123400042D01*
X243986985Y-123400042D02*
X243986985Y-122114328D01*
X243201271Y-123614328D02*
X243201271Y-122614328D01*
X243201271Y-122114328D02*
X243272699Y-122185757D01*
X243272699Y-122185757D02*
X243201271Y-122257185D01*
X243201271Y-122257185D02*
X243129842Y-122185757D01*
X243129842Y-122185757D02*
X243201271Y-122114328D01*
X243201271Y-122114328D02*
X243201271Y-122257185D01*
X241915556Y-123542900D02*
X242058413Y-123614328D01*
X242058413Y-123614328D02*
X242344128Y-123614328D01*
X242344128Y-123614328D02*
X242486985Y-123542900D01*
X242486985Y-123542900D02*
X242558413Y-123400042D01*
X242558413Y-123400042D02*
X242558413Y-122828614D01*
X242558413Y-122828614D02*
X242486985Y-122685757D01*
X242486985Y-122685757D02*
X242344128Y-122614328D01*
X242344128Y-122614328D02*
X242058413Y-122614328D01*
X242058413Y-122614328D02*
X241915556Y-122685757D01*
X241915556Y-122685757D02*
X241844128Y-122828614D01*
X241844128Y-122828614D02*
X241844128Y-122971471D01*
X241844128Y-122971471D02*
X242558413Y-123114328D01*
X241272699Y-123542900D02*
X241129842Y-123614328D01*
X241129842Y-123614328D02*
X240844128Y-123614328D01*
X240844128Y-123614328D02*
X240701271Y-123542900D01*
X240701271Y-123542900D02*
X240629842Y-123400042D01*
X240629842Y-123400042D02*
X240629842Y-123328614D01*
X240629842Y-123328614D02*
X240701271Y-123185757D01*
X240701271Y-123185757D02*
X240844128Y-123114328D01*
X240844128Y-123114328D02*
X241058414Y-123114328D01*
X241058414Y-123114328D02*
X241201271Y-123042900D01*
X241201271Y-123042900D02*
X241272699Y-122900042D01*
X241272699Y-122900042D02*
X241272699Y-122828614D01*
X241272699Y-122828614D02*
X241201271Y-122685757D01*
X241201271Y-122685757D02*
X241058414Y-122614328D01*
X241058414Y-122614328D02*
X240844128Y-122614328D01*
X240844128Y-122614328D02*
X240701271Y-122685757D01*
X238844128Y-123614328D02*
X238844128Y-122114328D01*
X238844128Y-122828614D02*
X237986985Y-122828614D01*
X237986985Y-123614328D02*
X237986985Y-122114328D01*
X237272699Y-123614328D02*
X237272699Y-122614328D01*
X237272699Y-122114328D02*
X237344127Y-122185757D01*
X237344127Y-122185757D02*
X237272699Y-122257185D01*
X237272699Y-122257185D02*
X237201270Y-122185757D01*
X237201270Y-122185757D02*
X237272699Y-122114328D01*
X237272699Y-122114328D02*
X237272699Y-122257185D01*
X235915556Y-122614328D02*
X235915556Y-123828614D01*
X235915556Y-123828614D02*
X235986984Y-123971471D01*
X235986984Y-123971471D02*
X236058413Y-124042900D01*
X236058413Y-124042900D02*
X236201270Y-124114328D01*
X236201270Y-124114328D02*
X236415556Y-124114328D01*
X236415556Y-124114328D02*
X236558413Y-124042900D01*
X235915556Y-123542900D02*
X236058413Y-123614328D01*
X236058413Y-123614328D02*
X236344127Y-123614328D01*
X236344127Y-123614328D02*
X236486984Y-123542900D01*
X236486984Y-123542900D02*
X236558413Y-123471471D01*
X236558413Y-123471471D02*
X236629841Y-123328614D01*
X236629841Y-123328614D02*
X236629841Y-122900042D01*
X236629841Y-122900042D02*
X236558413Y-122757185D01*
X236558413Y-122757185D02*
X236486984Y-122685757D01*
X236486984Y-122685757D02*
X236344127Y-122614328D01*
X236344127Y-122614328D02*
X236058413Y-122614328D01*
X236058413Y-122614328D02*
X235915556Y-122685757D01*
X235201270Y-123614328D02*
X235201270Y-122114328D01*
X234558413Y-123614328D02*
X234558413Y-122828614D01*
X234558413Y-122828614D02*
X234629841Y-122685757D01*
X234629841Y-122685757D02*
X234772698Y-122614328D01*
X234772698Y-122614328D02*
X234986984Y-122614328D01*
X234986984Y-122614328D02*
X235129841Y-122685757D01*
X235129841Y-122685757D02*
X235201270Y-122757185D01*
X232272698Y-124185757D02*
X232344127Y-124114328D01*
X232344127Y-124114328D02*
X232486984Y-123900042D01*
X232486984Y-123900042D02*
X232558413Y-123757185D01*
X232558413Y-123757185D02*
X232629841Y-123542900D01*
X232629841Y-123542900D02*
X232701270Y-123185757D01*
X232701270Y-123185757D02*
X232701270Y-122900042D01*
X232701270Y-122900042D02*
X232629841Y-122542900D01*
X232629841Y-122542900D02*
X232558413Y-122328614D01*
X232558413Y-122328614D02*
X232486984Y-122185757D01*
X232486984Y-122185757D02*
X232344127Y-121971471D01*
X232344127Y-121971471D02*
X232272698Y-121900042D01*
X231915555Y-122114328D02*
X231058413Y-122114328D01*
X231486984Y-123614328D02*
X231486984Y-122114328D01*
X229915556Y-122614328D02*
X229915556Y-123614328D01*
X230558413Y-122614328D02*
X230558413Y-123400042D01*
X230558413Y-123400042D02*
X230486984Y-123542900D01*
X230486984Y-123542900D02*
X230344127Y-123614328D01*
X230344127Y-123614328D02*
X230129841Y-123614328D01*
X230129841Y-123614328D02*
X229986984Y-123542900D01*
X229986984Y-123542900D02*
X229915556Y-123471471D01*
X229201270Y-123614328D02*
X229201270Y-122614328D01*
X229201270Y-122900042D02*
X229129841Y-122757185D01*
X229129841Y-122757185D02*
X229058413Y-122685757D01*
X229058413Y-122685757D02*
X228915555Y-122614328D01*
X228915555Y-122614328D02*
X228772698Y-122614328D01*
X228272699Y-122614328D02*
X228272699Y-123614328D01*
X228272699Y-122757185D02*
X228201270Y-122685757D01*
X228201270Y-122685757D02*
X228058413Y-122614328D01*
X228058413Y-122614328D02*
X227844127Y-122614328D01*
X227844127Y-122614328D02*
X227701270Y-122685757D01*
X227701270Y-122685757D02*
X227629842Y-122828614D01*
X227629842Y-122828614D02*
X227629842Y-123614328D01*
X226986984Y-123542900D02*
X226844127Y-123614328D01*
X226844127Y-123614328D02*
X226558413Y-123614328D01*
X226558413Y-123614328D02*
X226415556Y-123542900D01*
X226415556Y-123542900D02*
X226344127Y-123400042D01*
X226344127Y-123400042D02*
X226344127Y-123328614D01*
X226344127Y-123328614D02*
X226415556Y-123185757D01*
X226415556Y-123185757D02*
X226558413Y-123114328D01*
X226558413Y-123114328D02*
X226772699Y-123114328D01*
X226772699Y-123114328D02*
X226915556Y-123042900D01*
X226915556Y-123042900D02*
X226986984Y-122900042D01*
X226986984Y-122900042D02*
X226986984Y-122828614D01*
X226986984Y-122828614D02*
X226915556Y-122685757D01*
X226915556Y-122685757D02*
X226772699Y-122614328D01*
X226772699Y-122614328D02*
X226558413Y-122614328D01*
X226558413Y-122614328D02*
X226415556Y-122685757D01*
X223844127Y-123614328D02*
X224558413Y-123614328D01*
X224558413Y-123614328D02*
X224558413Y-122114328D01*
X222772698Y-123542900D02*
X222915555Y-123614328D01*
X222915555Y-123614328D02*
X223201270Y-123614328D01*
X223201270Y-123614328D02*
X223344127Y-123542900D01*
X223344127Y-123542900D02*
X223415555Y-123400042D01*
X223415555Y-123400042D02*
X223415555Y-122828614D01*
X223415555Y-122828614D02*
X223344127Y-122685757D01*
X223344127Y-122685757D02*
X223201270Y-122614328D01*
X223201270Y-122614328D02*
X222915555Y-122614328D01*
X222915555Y-122614328D02*
X222772698Y-122685757D01*
X222772698Y-122685757D02*
X222701270Y-122828614D01*
X222701270Y-122828614D02*
X222701270Y-122971471D01*
X222701270Y-122971471D02*
X223415555Y-123114328D01*
X222272698Y-122614328D02*
X221701270Y-122614328D01*
X222058413Y-123614328D02*
X222058413Y-122328614D01*
X222058413Y-122328614D02*
X221986984Y-122185757D01*
X221986984Y-122185757D02*
X221844127Y-122114328D01*
X221844127Y-122114328D02*
X221701270Y-122114328D01*
X221415555Y-122614328D02*
X220844127Y-122614328D01*
X221201270Y-122114328D02*
X221201270Y-123400042D01*
X221201270Y-123400042D02*
X221129841Y-123542900D01*
X221129841Y-123542900D02*
X220986984Y-123614328D01*
X220986984Y-123614328D02*
X220844127Y-123614328D01*
X220272698Y-123542900D02*
X220272698Y-123614328D01*
X220272698Y-123614328D02*
X220344127Y-123757185D01*
X220344127Y-123757185D02*
X220415555Y-123828614D01*
X217772698Y-123614328D02*
X218486984Y-123614328D01*
X218486984Y-123614328D02*
X218486984Y-122114328D01*
X217058412Y-123614328D02*
X217201269Y-123542900D01*
X217201269Y-123542900D02*
X217272698Y-123471471D01*
X217272698Y-123471471D02*
X217344126Y-123328614D01*
X217344126Y-123328614D02*
X217344126Y-122900042D01*
X217344126Y-122900042D02*
X217272698Y-122757185D01*
X217272698Y-122757185D02*
X217201269Y-122685757D01*
X217201269Y-122685757D02*
X217058412Y-122614328D01*
X217058412Y-122614328D02*
X216844126Y-122614328D01*
X216844126Y-122614328D02*
X216701269Y-122685757D01*
X216701269Y-122685757D02*
X216629841Y-122757185D01*
X216629841Y-122757185D02*
X216558412Y-122900042D01*
X216558412Y-122900042D02*
X216558412Y-123328614D01*
X216558412Y-123328614D02*
X216629841Y-123471471D01*
X216629841Y-123471471D02*
X216701269Y-123542900D01*
X216701269Y-123542900D02*
X216844126Y-123614328D01*
X216844126Y-123614328D02*
X217058412Y-123614328D01*
X215701269Y-123614328D02*
X215844126Y-123542900D01*
X215844126Y-123542900D02*
X215915555Y-123471471D01*
X215915555Y-123471471D02*
X215986983Y-123328614D01*
X215986983Y-123328614D02*
X215986983Y-122900042D01*
X215986983Y-122900042D02*
X215915555Y-122757185D01*
X215915555Y-122757185D02*
X215844126Y-122685757D01*
X215844126Y-122685757D02*
X215701269Y-122614328D01*
X215701269Y-122614328D02*
X215486983Y-122614328D01*
X215486983Y-122614328D02*
X215344126Y-122685757D01*
X215344126Y-122685757D02*
X215272698Y-122757185D01*
X215272698Y-122757185D02*
X215201269Y-122900042D01*
X215201269Y-122900042D02*
X215201269Y-123328614D01*
X215201269Y-123328614D02*
X215272698Y-123471471D01*
X215272698Y-123471471D02*
X215344126Y-123542900D01*
X215344126Y-123542900D02*
X215486983Y-123614328D01*
X215486983Y-123614328D02*
X215701269Y-123614328D01*
X214558412Y-123614328D02*
X214558412Y-122114328D01*
X214415555Y-123042900D02*
X213986983Y-123614328D01*
X213986983Y-122614328D02*
X214558412Y-123185757D01*
X213415554Y-123542900D02*
X213272697Y-123614328D01*
X213272697Y-123614328D02*
X212986983Y-123614328D01*
X212986983Y-123614328D02*
X212844126Y-123542900D01*
X212844126Y-123542900D02*
X212772697Y-123400042D01*
X212772697Y-123400042D02*
X212772697Y-123328614D01*
X212772697Y-123328614D02*
X212844126Y-123185757D01*
X212844126Y-123185757D02*
X212986983Y-123114328D01*
X212986983Y-123114328D02*
X213201269Y-123114328D01*
X213201269Y-123114328D02*
X213344126Y-123042900D01*
X213344126Y-123042900D02*
X213415554Y-122900042D01*
X213415554Y-122900042D02*
X213415554Y-122828614D01*
X213415554Y-122828614D02*
X213344126Y-122685757D01*
X213344126Y-122685757D02*
X213201269Y-122614328D01*
X213201269Y-122614328D02*
X212986983Y-122614328D01*
X212986983Y-122614328D02*
X212844126Y-122685757D01*
X210129840Y-123614328D02*
X210629840Y-122900042D01*
X210986983Y-123614328D02*
X210986983Y-122114328D01*
X210986983Y-122114328D02*
X210415554Y-122114328D01*
X210415554Y-122114328D02*
X210272697Y-122185757D01*
X210272697Y-122185757D02*
X210201268Y-122257185D01*
X210201268Y-122257185D02*
X210129840Y-122400042D01*
X210129840Y-122400042D02*
X210129840Y-122614328D01*
X210129840Y-122614328D02*
X210201268Y-122757185D01*
X210201268Y-122757185D02*
X210272697Y-122828614D01*
X210272697Y-122828614D02*
X210415554Y-122900042D01*
X210415554Y-122900042D02*
X210986983Y-122900042D01*
X209486983Y-123614328D02*
X209486983Y-122614328D01*
X209486983Y-122114328D02*
X209558411Y-122185757D01*
X209558411Y-122185757D02*
X209486983Y-122257185D01*
X209486983Y-122257185D02*
X209415554Y-122185757D01*
X209415554Y-122185757D02*
X209486983Y-122114328D01*
X209486983Y-122114328D02*
X209486983Y-122257185D01*
X208129840Y-122614328D02*
X208129840Y-123828614D01*
X208129840Y-123828614D02*
X208201268Y-123971471D01*
X208201268Y-123971471D02*
X208272697Y-124042900D01*
X208272697Y-124042900D02*
X208415554Y-124114328D01*
X208415554Y-124114328D02*
X208629840Y-124114328D01*
X208629840Y-124114328D02*
X208772697Y-124042900D01*
X208129840Y-123542900D02*
X208272697Y-123614328D01*
X208272697Y-123614328D02*
X208558411Y-123614328D01*
X208558411Y-123614328D02*
X208701268Y-123542900D01*
X208701268Y-123542900D02*
X208772697Y-123471471D01*
X208772697Y-123471471D02*
X208844125Y-123328614D01*
X208844125Y-123328614D02*
X208844125Y-122900042D01*
X208844125Y-122900042D02*
X208772697Y-122757185D01*
X208772697Y-122757185D02*
X208701268Y-122685757D01*
X208701268Y-122685757D02*
X208558411Y-122614328D01*
X208558411Y-122614328D02*
X208272697Y-122614328D01*
X208272697Y-122614328D02*
X208129840Y-122685757D01*
X207415554Y-123614328D02*
X207415554Y-122114328D01*
X206772697Y-123614328D02*
X206772697Y-122828614D01*
X206772697Y-122828614D02*
X206844125Y-122685757D01*
X206844125Y-122685757D02*
X206986982Y-122614328D01*
X206986982Y-122614328D02*
X207201268Y-122614328D01*
X207201268Y-122614328D02*
X207344125Y-122685757D01*
X207344125Y-122685757D02*
X207415554Y-122757185D01*
X206272696Y-122614328D02*
X205701268Y-122614328D01*
X206058411Y-122114328D02*
X206058411Y-123400042D01*
X206058411Y-123400042D02*
X205986982Y-123542900D01*
X205986982Y-123542900D02*
X205844125Y-123614328D01*
X205844125Y-123614328D02*
X205701268Y-123614328D01*
X205344125Y-124185757D02*
X205272696Y-124114328D01*
X205272696Y-124114328D02*
X205129839Y-123900042D01*
X205129839Y-123900042D02*
X205058411Y-123757185D01*
X205058411Y-123757185D02*
X204986982Y-123542900D01*
X204986982Y-123542900D02*
X204915553Y-123185757D01*
X204915553Y-123185757D02*
X204915553Y-122900042D01*
X204915553Y-122900042D02*
X204986982Y-122542900D01*
X204986982Y-122542900D02*
X205058411Y-122328614D01*
X205058411Y-122328614D02*
X205129839Y-122185757D01*
X205129839Y-122185757D02*
X205272696Y-121971471D01*
X205272696Y-121971471D02*
X205344125Y-121900042D01*
D11*
X146499642Y-84942418D02*
X146499642Y-85135942D01*
X146693166Y-85058533D02*
X146499642Y-85135942D01*
X146499642Y-85135942D02*
X146306119Y-85058533D01*
X146615757Y-85290761D02*
X146499642Y-85135942D01*
X146499642Y-85135942D02*
X146383528Y-85290761D01*
X145880366Y-84942418D02*
X145880366Y-85135942D01*
X146073890Y-85058533D02*
X145880366Y-85135942D01*
X145880366Y-85135942D02*
X145686843Y-85058533D01*
X145996481Y-85290761D02*
X145880366Y-85135942D01*
X145880366Y-85135942D02*
X145764252Y-85290761D01*
X135069642Y-84942418D02*
X135069642Y-85135942D01*
X135263166Y-85058533D02*
X135069642Y-85135942D01*
X135069642Y-85135942D02*
X134876119Y-85058533D01*
X135185757Y-85290761D02*
X135069642Y-85135942D01*
X135069642Y-85135942D02*
X134953528Y-85290761D01*
X134450366Y-84942418D02*
X134450366Y-85135942D01*
X134643890Y-85058533D02*
X134450366Y-85135942D01*
X134450366Y-85135942D02*
X134256843Y-85058533D01*
X134566481Y-85290761D02*
X134450366Y-85135942D01*
X134450366Y-85135942D02*
X134334252Y-85290761D01*
D12*
X91738752Y-65762500D02*
X91738752Y-66143452D01*
X91405419Y-65905357D02*
X92262561Y-65905357D01*
X92262561Y-65905357D02*
X92357800Y-65952976D01*
X92357800Y-65952976D02*
X92405419Y-66048214D01*
X92405419Y-66048214D02*
X92405419Y-66143452D01*
X92357800Y-66857738D02*
X92405419Y-66762500D01*
X92405419Y-66762500D02*
X92405419Y-66572024D01*
X92405419Y-66572024D02*
X92357800Y-66476786D01*
X92357800Y-66476786D02*
X92262561Y-66429167D01*
X92262561Y-66429167D02*
X91881609Y-66429167D01*
X91881609Y-66429167D02*
X91786371Y-66476786D01*
X91786371Y-66476786D02*
X91738752Y-66572024D01*
X91738752Y-66572024D02*
X91738752Y-66762500D01*
X91738752Y-66762500D02*
X91786371Y-66857738D01*
X91786371Y-66857738D02*
X91881609Y-66905357D01*
X91881609Y-66905357D02*
X91976847Y-66905357D01*
X91976847Y-66905357D02*
X92072085Y-66429167D01*
X91738752Y-67333929D02*
X92405419Y-67333929D01*
X91833990Y-67333929D02*
X91786371Y-67381548D01*
X91786371Y-67381548D02*
X91738752Y-67476786D01*
X91738752Y-67476786D02*
X91738752Y-67619643D01*
X91738752Y-67619643D02*
X91786371Y-67714881D01*
X91786371Y-67714881D02*
X91881609Y-67762500D01*
X91881609Y-67762500D02*
X92405419Y-67762500D01*
X91738752Y-68095834D02*
X91738752Y-68476786D01*
X91405419Y-68238691D02*
X92262561Y-68238691D01*
X92262561Y-68238691D02*
X92357800Y-68286310D01*
X92357800Y-68286310D02*
X92405419Y-68381548D01*
X92405419Y-68381548D02*
X92405419Y-68476786D01*
X92405419Y-68810120D02*
X91738752Y-68810120D01*
X91405419Y-68810120D02*
X91453038Y-68762501D01*
X91453038Y-68762501D02*
X91500657Y-68810120D01*
X91500657Y-68810120D02*
X91453038Y-68857739D01*
X91453038Y-68857739D02*
X91405419Y-68810120D01*
X91405419Y-68810120D02*
X91500657Y-68810120D01*
X91738752Y-69286310D02*
X92405419Y-69286310D01*
X91833990Y-69286310D02*
X91786371Y-69333929D01*
X91786371Y-69333929D02*
X91738752Y-69429167D01*
X91738752Y-69429167D02*
X91738752Y-69572024D01*
X91738752Y-69572024D02*
X91786371Y-69667262D01*
X91786371Y-69667262D02*
X91881609Y-69714881D01*
X91881609Y-69714881D02*
X92405419Y-69714881D01*
X91738752Y-70619643D02*
X92548276Y-70619643D01*
X92548276Y-70619643D02*
X92643514Y-70572024D01*
X92643514Y-70572024D02*
X92691133Y-70524405D01*
X92691133Y-70524405D02*
X92738752Y-70429167D01*
X92738752Y-70429167D02*
X92738752Y-70286310D01*
X92738752Y-70286310D02*
X92691133Y-70191072D01*
X92357800Y-70619643D02*
X92405419Y-70524405D01*
X92405419Y-70524405D02*
X92405419Y-70333929D01*
X92405419Y-70333929D02*
X92357800Y-70238691D01*
X92357800Y-70238691D02*
X92310180Y-70191072D01*
X92310180Y-70191072D02*
X92214942Y-70143453D01*
X92214942Y-70143453D02*
X91929228Y-70143453D01*
X91929228Y-70143453D02*
X91833990Y-70191072D01*
X91833990Y-70191072D02*
X91786371Y-70238691D01*
X91786371Y-70238691D02*
X91738752Y-70333929D01*
X91738752Y-70333929D02*
X91738752Y-70524405D01*
X91738752Y-70524405D02*
X91786371Y-70619643D01*
X91802252Y-79716500D02*
X92802252Y-79716500D01*
X91849871Y-79716500D02*
X91802252Y-79811738D01*
X91802252Y-79811738D02*
X91802252Y-80002214D01*
X91802252Y-80002214D02*
X91849871Y-80097452D01*
X91849871Y-80097452D02*
X91897490Y-80145071D01*
X91897490Y-80145071D02*
X91992728Y-80192690D01*
X91992728Y-80192690D02*
X92278442Y-80192690D01*
X92278442Y-80192690D02*
X92373680Y-80145071D01*
X92373680Y-80145071D02*
X92421300Y-80097452D01*
X92421300Y-80097452D02*
X92468919Y-80002214D01*
X92468919Y-80002214D02*
X92468919Y-79811738D01*
X92468919Y-79811738D02*
X92421300Y-79716500D01*
X91802252Y-81049833D02*
X92468919Y-81049833D01*
X91802252Y-80621262D02*
X92326061Y-80621262D01*
X92326061Y-80621262D02*
X92421300Y-80668881D01*
X92421300Y-80668881D02*
X92468919Y-80764119D01*
X92468919Y-80764119D02*
X92468919Y-80906976D01*
X92468919Y-80906976D02*
X92421300Y-81002214D01*
X92421300Y-81002214D02*
X92373680Y-81049833D01*
X92421300Y-81954595D02*
X92468919Y-81859357D01*
X92468919Y-81859357D02*
X92468919Y-81668881D01*
X92468919Y-81668881D02*
X92421300Y-81573643D01*
X92421300Y-81573643D02*
X92373680Y-81526024D01*
X92373680Y-81526024D02*
X92278442Y-81478405D01*
X92278442Y-81478405D02*
X91992728Y-81478405D01*
X91992728Y-81478405D02*
X91897490Y-81526024D01*
X91897490Y-81526024D02*
X91849871Y-81573643D01*
X91849871Y-81573643D02*
X91802252Y-81668881D01*
X91802252Y-81668881D02*
X91802252Y-81859357D01*
X91802252Y-81859357D02*
X91849871Y-81954595D01*
X92468919Y-82383167D02*
X91468919Y-82383167D01*
X92087966Y-82478405D02*
X92468919Y-82764119D01*
X91802252Y-82764119D02*
X92183204Y-82383167D01*
D11*
X128846381Y-119242819D02*
X129179714Y-118766628D01*
X129417809Y-119242819D02*
X129417809Y-118242819D01*
X129417809Y-118242819D02*
X129036857Y-118242819D01*
X129036857Y-118242819D02*
X128941619Y-118290438D01*
X128941619Y-118290438D02*
X128894000Y-118338057D01*
X128894000Y-118338057D02*
X128846381Y-118433295D01*
X128846381Y-118433295D02*
X128846381Y-118576152D01*
X128846381Y-118576152D02*
X128894000Y-118671390D01*
X128894000Y-118671390D02*
X128941619Y-118719009D01*
X128941619Y-118719009D02*
X129036857Y-118766628D01*
X129036857Y-118766628D02*
X129417809Y-118766628D01*
X128417809Y-118719009D02*
X128084476Y-118719009D01*
X127941619Y-119242819D02*
X128417809Y-119242819D01*
X128417809Y-119242819D02*
X128417809Y-118242819D01*
X128417809Y-118242819D02*
X127941619Y-118242819D01*
X127560666Y-119195200D02*
X127417809Y-119242819D01*
X127417809Y-119242819D02*
X127179714Y-119242819D01*
X127179714Y-119242819D02*
X127084476Y-119195200D01*
X127084476Y-119195200D02*
X127036857Y-119147580D01*
X127036857Y-119147580D02*
X126989238Y-119052342D01*
X126989238Y-119052342D02*
X126989238Y-118957104D01*
X126989238Y-118957104D02*
X127036857Y-118861866D01*
X127036857Y-118861866D02*
X127084476Y-118814247D01*
X127084476Y-118814247D02*
X127179714Y-118766628D01*
X127179714Y-118766628D02*
X127370190Y-118719009D01*
X127370190Y-118719009D02*
X127465428Y-118671390D01*
X127465428Y-118671390D02*
X127513047Y-118623771D01*
X127513047Y-118623771D02*
X127560666Y-118528533D01*
X127560666Y-118528533D02*
X127560666Y-118433295D01*
X127560666Y-118433295D02*
X127513047Y-118338057D01*
X127513047Y-118338057D02*
X127465428Y-118290438D01*
X127465428Y-118290438D02*
X127370190Y-118242819D01*
X127370190Y-118242819D02*
X127132095Y-118242819D01*
X127132095Y-118242819D02*
X126989238Y-118290438D01*
X126560666Y-118719009D02*
X126227333Y-118719009D01*
X126084476Y-119242819D02*
X126560666Y-119242819D01*
X126560666Y-119242819D02*
X126560666Y-118242819D01*
X126560666Y-118242819D02*
X126084476Y-118242819D01*
X125798761Y-118242819D02*
X125227333Y-118242819D01*
X125513047Y-119242819D02*
X125513047Y-118242819D01*
D13*
X146334952Y-93102178D02*
X146382571Y-93066464D01*
X146382571Y-93066464D02*
X146454000Y-93066464D01*
X146454000Y-93066464D02*
X146525428Y-93102178D01*
X146525428Y-93102178D02*
X146573047Y-93173607D01*
X146573047Y-93173607D02*
X146596857Y-93245035D01*
X146596857Y-93245035D02*
X146620666Y-93387892D01*
X146620666Y-93387892D02*
X146620666Y-93495035D01*
X146620666Y-93495035D02*
X146596857Y-93637892D01*
X146596857Y-93637892D02*
X146573047Y-93709321D01*
X146573047Y-93709321D02*
X146525428Y-93780750D01*
X146525428Y-93780750D02*
X146454000Y-93816464D01*
X146454000Y-93816464D02*
X146406381Y-93816464D01*
X146406381Y-93816464D02*
X146334952Y-93780750D01*
X146334952Y-93780750D02*
X146311143Y-93745035D01*
X146311143Y-93745035D02*
X146311143Y-93495035D01*
X146311143Y-93495035D02*
X146406381Y-93495035D01*
X146096857Y-93816464D02*
X146096857Y-93066464D01*
X146096857Y-93066464D02*
X145811143Y-93816464D01*
X145811143Y-93816464D02*
X145811143Y-93066464D01*
X145573047Y-93816464D02*
X145573047Y-93066464D01*
X145573047Y-93066464D02*
X145453999Y-93066464D01*
X145453999Y-93066464D02*
X145382571Y-93102178D01*
X145382571Y-93102178D02*
X145334952Y-93173607D01*
X145334952Y-93173607D02*
X145311142Y-93245035D01*
X145311142Y-93245035D02*
X145287333Y-93387892D01*
X145287333Y-93387892D02*
X145287333Y-93495035D01*
X145287333Y-93495035D02*
X145311142Y-93637892D01*
X145311142Y-93637892D02*
X145334952Y-93709321D01*
X145334952Y-93709321D02*
X145382571Y-93780750D01*
X145382571Y-93780750D02*
X145453999Y-93816464D01*
X145453999Y-93816464D02*
X145573047Y-93816464D01*
X134799238Y-86066464D02*
X134965904Y-85709321D01*
X135084952Y-86066464D02*
X135084952Y-85316464D01*
X135084952Y-85316464D02*
X134894476Y-85316464D01*
X134894476Y-85316464D02*
X134846857Y-85352178D01*
X134846857Y-85352178D02*
X134823047Y-85387892D01*
X134823047Y-85387892D02*
X134799238Y-85459321D01*
X134799238Y-85459321D02*
X134799238Y-85566464D01*
X134799238Y-85566464D02*
X134823047Y-85637892D01*
X134823047Y-85637892D02*
X134846857Y-85673607D01*
X134846857Y-85673607D02*
X134894476Y-85709321D01*
X134894476Y-85709321D02*
X135084952Y-85709321D01*
X134608761Y-85852178D02*
X134370666Y-85852178D01*
X134656380Y-86066464D02*
X134489714Y-85316464D01*
X134489714Y-85316464D02*
X134323047Y-86066464D01*
X134204000Y-85316464D02*
X134084952Y-86066464D01*
X134084952Y-86066464D02*
X133989714Y-85530750D01*
X133989714Y-85530750D02*
X133894476Y-86066464D01*
X133894476Y-86066464D02*
X133775429Y-85316464D01*
X134704952Y-87992178D02*
X134752571Y-87956464D01*
X134752571Y-87956464D02*
X134824000Y-87956464D01*
X134824000Y-87956464D02*
X134895428Y-87992178D01*
X134895428Y-87992178D02*
X134943047Y-88063607D01*
X134943047Y-88063607D02*
X134966857Y-88135035D01*
X134966857Y-88135035D02*
X134990666Y-88277892D01*
X134990666Y-88277892D02*
X134990666Y-88385035D01*
X134990666Y-88385035D02*
X134966857Y-88527892D01*
X134966857Y-88527892D02*
X134943047Y-88599321D01*
X134943047Y-88599321D02*
X134895428Y-88670750D01*
X134895428Y-88670750D02*
X134824000Y-88706464D01*
X134824000Y-88706464D02*
X134776381Y-88706464D01*
X134776381Y-88706464D02*
X134704952Y-88670750D01*
X134704952Y-88670750D02*
X134681143Y-88635035D01*
X134681143Y-88635035D02*
X134681143Y-88385035D01*
X134681143Y-88385035D02*
X134776381Y-88385035D01*
X134466857Y-88706464D02*
X134466857Y-87956464D01*
X134466857Y-87956464D02*
X134181143Y-88706464D01*
X134181143Y-88706464D02*
X134181143Y-87956464D01*
X133943047Y-88706464D02*
X133943047Y-87956464D01*
X133943047Y-87956464D02*
X133823999Y-87956464D01*
X133823999Y-87956464D02*
X133752571Y-87992178D01*
X133752571Y-87992178D02*
X133704952Y-88063607D01*
X133704952Y-88063607D02*
X133681142Y-88135035D01*
X133681142Y-88135035D02*
X133657333Y-88277892D01*
X133657333Y-88277892D02*
X133657333Y-88385035D01*
X133657333Y-88385035D02*
X133681142Y-88527892D01*
X133681142Y-88527892D02*
X133704952Y-88599321D01*
X133704952Y-88599321D02*
X133752571Y-88670750D01*
X133752571Y-88670750D02*
X133823999Y-88706464D01*
X133823999Y-88706464D02*
X133943047Y-88706464D01*
X146354952Y-90522178D02*
X146402571Y-90486464D01*
X146402571Y-90486464D02*
X146474000Y-90486464D01*
X146474000Y-90486464D02*
X146545428Y-90522178D01*
X146545428Y-90522178D02*
X146593047Y-90593607D01*
X146593047Y-90593607D02*
X146616857Y-90665035D01*
X146616857Y-90665035D02*
X146640666Y-90807892D01*
X146640666Y-90807892D02*
X146640666Y-90915035D01*
X146640666Y-90915035D02*
X146616857Y-91057892D01*
X146616857Y-91057892D02*
X146593047Y-91129321D01*
X146593047Y-91129321D02*
X146545428Y-91200750D01*
X146545428Y-91200750D02*
X146474000Y-91236464D01*
X146474000Y-91236464D02*
X146426381Y-91236464D01*
X146426381Y-91236464D02*
X146354952Y-91200750D01*
X146354952Y-91200750D02*
X146331143Y-91165035D01*
X146331143Y-91165035D02*
X146331143Y-90915035D01*
X146331143Y-90915035D02*
X146426381Y-90915035D01*
X146116857Y-91236464D02*
X146116857Y-90486464D01*
X146116857Y-90486464D02*
X145831143Y-91236464D01*
X145831143Y-91236464D02*
X145831143Y-90486464D01*
X145593047Y-91236464D02*
X145593047Y-90486464D01*
X145593047Y-90486464D02*
X145473999Y-90486464D01*
X145473999Y-90486464D02*
X145402571Y-90522178D01*
X145402571Y-90522178D02*
X145354952Y-90593607D01*
X145354952Y-90593607D02*
X145331142Y-90665035D01*
X145331142Y-90665035D02*
X145307333Y-90807892D01*
X145307333Y-90807892D02*
X145307333Y-90915035D01*
X145307333Y-90915035D02*
X145331142Y-91057892D01*
X145331142Y-91057892D02*
X145354952Y-91129321D01*
X145354952Y-91129321D02*
X145402571Y-91200750D01*
X145402571Y-91200750D02*
X145473999Y-91236464D01*
X145473999Y-91236464D02*
X145593047Y-91236464D01*
D11*
X166769477Y-84688418D02*
X166769477Y-84881942D01*
X166963001Y-84804533D02*
X166769477Y-84881942D01*
X166769477Y-84881942D02*
X166575954Y-84804533D01*
X166885592Y-85036761D02*
X166769477Y-84881942D01*
X166769477Y-84881942D02*
X166653363Y-85036761D01*
X166150201Y-84688418D02*
X166150201Y-84881942D01*
X166343725Y-84804533D02*
X166150201Y-84881942D01*
X166150201Y-84881942D02*
X165956678Y-84804533D01*
X166266316Y-85036761D02*
X166150201Y-84881942D01*
X166150201Y-84881942D02*
X166034087Y-85036761D01*
X173500221Y-119496819D02*
X173833554Y-119020628D01*
X174071649Y-119496819D02*
X174071649Y-118496819D01*
X174071649Y-118496819D02*
X173690697Y-118496819D01*
X173690697Y-118496819D02*
X173595459Y-118544438D01*
X173595459Y-118544438D02*
X173547840Y-118592057D01*
X173547840Y-118592057D02*
X173500221Y-118687295D01*
X173500221Y-118687295D02*
X173500221Y-118830152D01*
X173500221Y-118830152D02*
X173547840Y-118925390D01*
X173547840Y-118925390D02*
X173595459Y-118973009D01*
X173595459Y-118973009D02*
X173690697Y-119020628D01*
X173690697Y-119020628D02*
X174071649Y-119020628D01*
X173071649Y-118973009D02*
X172738316Y-118973009D01*
X172595459Y-119496819D02*
X173071649Y-119496819D01*
X173071649Y-119496819D02*
X173071649Y-118496819D01*
X173071649Y-118496819D02*
X172595459Y-118496819D01*
X172214506Y-119449200D02*
X172071649Y-119496819D01*
X172071649Y-119496819D02*
X171833554Y-119496819D01*
X171833554Y-119496819D02*
X171738316Y-119449200D01*
X171738316Y-119449200D02*
X171690697Y-119401580D01*
X171690697Y-119401580D02*
X171643078Y-119306342D01*
X171643078Y-119306342D02*
X171643078Y-119211104D01*
X171643078Y-119211104D02*
X171690697Y-119115866D01*
X171690697Y-119115866D02*
X171738316Y-119068247D01*
X171738316Y-119068247D02*
X171833554Y-119020628D01*
X171833554Y-119020628D02*
X172024030Y-118973009D01*
X172024030Y-118973009D02*
X172119268Y-118925390D01*
X172119268Y-118925390D02*
X172166887Y-118877771D01*
X172166887Y-118877771D02*
X172214506Y-118782533D01*
X172214506Y-118782533D02*
X172214506Y-118687295D01*
X172214506Y-118687295D02*
X172166887Y-118592057D01*
X172166887Y-118592057D02*
X172119268Y-118544438D01*
X172119268Y-118544438D02*
X172024030Y-118496819D01*
X172024030Y-118496819D02*
X171785935Y-118496819D01*
X171785935Y-118496819D02*
X171643078Y-118544438D01*
X171214506Y-118973009D02*
X170881173Y-118973009D01*
X170738316Y-119496819D02*
X171214506Y-119496819D01*
X171214506Y-119496819D02*
X171214506Y-118496819D01*
X171214506Y-118496819D02*
X170738316Y-118496819D01*
X170452601Y-118496819D02*
X169881173Y-118496819D01*
X170166887Y-119496819D02*
X170166887Y-118496819D01*
X155339477Y-84688418D02*
X155339477Y-84881942D01*
X155533001Y-84804533D02*
X155339477Y-84881942D01*
X155339477Y-84881942D02*
X155145954Y-84804533D01*
X155455592Y-85036761D02*
X155339477Y-84881942D01*
X155339477Y-84881942D02*
X155223363Y-85036761D01*
X154720201Y-84688418D02*
X154720201Y-84881942D01*
X154913725Y-84804533D02*
X154720201Y-84881942D01*
X154720201Y-84881942D02*
X154526678Y-84804533D01*
X154836316Y-85036761D02*
X154720201Y-84881942D01*
X154720201Y-84881942D02*
X154604087Y-85036761D01*
D12*
X207806592Y-65889500D02*
X207806592Y-66270452D01*
X207473259Y-66032357D02*
X208330401Y-66032357D01*
X208330401Y-66032357D02*
X208425640Y-66079976D01*
X208425640Y-66079976D02*
X208473259Y-66175214D01*
X208473259Y-66175214D02*
X208473259Y-66270452D01*
X208425640Y-66984738D02*
X208473259Y-66889500D01*
X208473259Y-66889500D02*
X208473259Y-66699024D01*
X208473259Y-66699024D02*
X208425640Y-66603786D01*
X208425640Y-66603786D02*
X208330401Y-66556167D01*
X208330401Y-66556167D02*
X207949449Y-66556167D01*
X207949449Y-66556167D02*
X207854211Y-66603786D01*
X207854211Y-66603786D02*
X207806592Y-66699024D01*
X207806592Y-66699024D02*
X207806592Y-66889500D01*
X207806592Y-66889500D02*
X207854211Y-66984738D01*
X207854211Y-66984738D02*
X207949449Y-67032357D01*
X207949449Y-67032357D02*
X208044687Y-67032357D01*
X208044687Y-67032357D02*
X208139925Y-66556167D01*
X207806592Y-67460929D02*
X208473259Y-67460929D01*
X207901830Y-67460929D02*
X207854211Y-67508548D01*
X207854211Y-67508548D02*
X207806592Y-67603786D01*
X207806592Y-67603786D02*
X207806592Y-67746643D01*
X207806592Y-67746643D02*
X207854211Y-67841881D01*
X207854211Y-67841881D02*
X207949449Y-67889500D01*
X207949449Y-67889500D02*
X208473259Y-67889500D01*
X207806592Y-68222834D02*
X207806592Y-68603786D01*
X207473259Y-68365691D02*
X208330401Y-68365691D01*
X208330401Y-68365691D02*
X208425640Y-68413310D01*
X208425640Y-68413310D02*
X208473259Y-68508548D01*
X208473259Y-68508548D02*
X208473259Y-68603786D01*
X208473259Y-68937120D02*
X207806592Y-68937120D01*
X207473259Y-68937120D02*
X207520878Y-68889501D01*
X207520878Y-68889501D02*
X207568497Y-68937120D01*
X207568497Y-68937120D02*
X207520878Y-68984739D01*
X207520878Y-68984739D02*
X207473259Y-68937120D01*
X207473259Y-68937120D02*
X207568497Y-68937120D01*
X207806592Y-69413310D02*
X208473259Y-69413310D01*
X207901830Y-69413310D02*
X207854211Y-69460929D01*
X207854211Y-69460929D02*
X207806592Y-69556167D01*
X207806592Y-69556167D02*
X207806592Y-69699024D01*
X207806592Y-69699024D02*
X207854211Y-69794262D01*
X207854211Y-69794262D02*
X207949449Y-69841881D01*
X207949449Y-69841881D02*
X208473259Y-69841881D01*
X207806592Y-70746643D02*
X208616116Y-70746643D01*
X208616116Y-70746643D02*
X208711354Y-70699024D01*
X208711354Y-70699024D02*
X208758973Y-70651405D01*
X208758973Y-70651405D02*
X208806592Y-70556167D01*
X208806592Y-70556167D02*
X208806592Y-70413310D01*
X208806592Y-70413310D02*
X208758973Y-70318072D01*
X208425640Y-70746643D02*
X208473259Y-70651405D01*
X208473259Y-70651405D02*
X208473259Y-70460929D01*
X208473259Y-70460929D02*
X208425640Y-70365691D01*
X208425640Y-70365691D02*
X208378020Y-70318072D01*
X208378020Y-70318072D02*
X208282782Y-70270453D01*
X208282782Y-70270453D02*
X207997068Y-70270453D01*
X207997068Y-70270453D02*
X207901830Y-70318072D01*
X207901830Y-70318072D02*
X207854211Y-70365691D01*
X207854211Y-70365691D02*
X207806592Y-70460929D01*
X207806592Y-70460929D02*
X207806592Y-70651405D01*
X207806592Y-70651405D02*
X207854211Y-70746643D01*
X207870092Y-79843500D02*
X208870092Y-79843500D01*
X207917711Y-79843500D02*
X207870092Y-79938738D01*
X207870092Y-79938738D02*
X207870092Y-80129214D01*
X207870092Y-80129214D02*
X207917711Y-80224452D01*
X207917711Y-80224452D02*
X207965330Y-80272071D01*
X207965330Y-80272071D02*
X208060568Y-80319690D01*
X208060568Y-80319690D02*
X208346282Y-80319690D01*
X208346282Y-80319690D02*
X208441520Y-80272071D01*
X208441520Y-80272071D02*
X208489140Y-80224452D01*
X208489140Y-80224452D02*
X208536759Y-80129214D01*
X208536759Y-80129214D02*
X208536759Y-79938738D01*
X208536759Y-79938738D02*
X208489140Y-79843500D01*
X207870092Y-81176833D02*
X208536759Y-81176833D01*
X207870092Y-80748262D02*
X208393901Y-80748262D01*
X208393901Y-80748262D02*
X208489140Y-80795881D01*
X208489140Y-80795881D02*
X208536759Y-80891119D01*
X208536759Y-80891119D02*
X208536759Y-81033976D01*
X208536759Y-81033976D02*
X208489140Y-81129214D01*
X208489140Y-81129214D02*
X208441520Y-81176833D01*
X208489140Y-82081595D02*
X208536759Y-81986357D01*
X208536759Y-81986357D02*
X208536759Y-81795881D01*
X208536759Y-81795881D02*
X208489140Y-81700643D01*
X208489140Y-81700643D02*
X208441520Y-81653024D01*
X208441520Y-81653024D02*
X208346282Y-81605405D01*
X208346282Y-81605405D02*
X208060568Y-81605405D01*
X208060568Y-81605405D02*
X207965330Y-81653024D01*
X207965330Y-81653024D02*
X207917711Y-81700643D01*
X207917711Y-81700643D02*
X207870092Y-81795881D01*
X207870092Y-81795881D02*
X207870092Y-81986357D01*
X207870092Y-81986357D02*
X207917711Y-82081595D01*
X208536759Y-82510167D02*
X207536759Y-82510167D01*
X208155806Y-82605405D02*
X208536759Y-82891119D01*
X207870092Y-82891119D02*
X208251044Y-82510167D01*
D11*
X160765904Y-118199819D02*
X160194476Y-118199819D01*
X160480190Y-119199819D02*
X160480190Y-118199819D01*
X159289714Y-119199819D02*
X159623047Y-118723628D01*
X159861142Y-119199819D02*
X159861142Y-118199819D01*
X159861142Y-118199819D02*
X159480190Y-118199819D01*
X159480190Y-118199819D02*
X159384952Y-118247438D01*
X159384952Y-118247438D02*
X159337333Y-118295057D01*
X159337333Y-118295057D02*
X159289714Y-118390295D01*
X159289714Y-118390295D02*
X159289714Y-118533152D01*
X159289714Y-118533152D02*
X159337333Y-118628390D01*
X159337333Y-118628390D02*
X159384952Y-118676009D01*
X159384952Y-118676009D02*
X159480190Y-118723628D01*
X159480190Y-118723628D02*
X159861142Y-118723628D01*
X158289714Y-119199819D02*
X158623047Y-118723628D01*
X158861142Y-119199819D02*
X158861142Y-118199819D01*
X158861142Y-118199819D02*
X158480190Y-118199819D01*
X158480190Y-118199819D02*
X158384952Y-118247438D01*
X158384952Y-118247438D02*
X158337333Y-118295057D01*
X158337333Y-118295057D02*
X158289714Y-118390295D01*
X158289714Y-118390295D02*
X158289714Y-118533152D01*
X158289714Y-118533152D02*
X158337333Y-118628390D01*
X158337333Y-118628390D02*
X158384952Y-118676009D01*
X158384952Y-118676009D02*
X158480190Y-118723628D01*
X158480190Y-118723628D02*
X158861142Y-118723628D01*
X157908761Y-119152200D02*
X157765904Y-119199819D01*
X157765904Y-119199819D02*
X157527809Y-119199819D01*
X157527809Y-119199819D02*
X157432571Y-119152200D01*
X157432571Y-119152200D02*
X157384952Y-119104580D01*
X157384952Y-119104580D02*
X157337333Y-119009342D01*
X157337333Y-119009342D02*
X157337333Y-118914104D01*
X157337333Y-118914104D02*
X157384952Y-118818866D01*
X157384952Y-118818866D02*
X157432571Y-118771247D01*
X157432571Y-118771247D02*
X157527809Y-118723628D01*
X157527809Y-118723628D02*
X157718285Y-118676009D01*
X157718285Y-118676009D02*
X157813523Y-118628390D01*
X157813523Y-118628390D02*
X157861142Y-118580771D01*
X157861142Y-118580771D02*
X157908761Y-118485533D01*
X157908761Y-118485533D02*
X157908761Y-118390295D01*
X157908761Y-118390295D02*
X157861142Y-118295057D01*
X157861142Y-118295057D02*
X157813523Y-118247438D01*
X157813523Y-118247438D02*
X157718285Y-118199819D01*
X157718285Y-118199819D02*
X157480190Y-118199819D01*
X157480190Y-118199819D02*
X157337333Y-118247438D01*
D13*
X155223078Y-86066464D02*
X155389744Y-85709321D01*
X155508792Y-86066464D02*
X155508792Y-85316464D01*
X155508792Y-85316464D02*
X155318316Y-85316464D01*
X155318316Y-85316464D02*
X155270697Y-85352178D01*
X155270697Y-85352178D02*
X155246887Y-85387892D01*
X155246887Y-85387892D02*
X155223078Y-85459321D01*
X155223078Y-85459321D02*
X155223078Y-85566464D01*
X155223078Y-85566464D02*
X155246887Y-85637892D01*
X155246887Y-85637892D02*
X155270697Y-85673607D01*
X155270697Y-85673607D02*
X155318316Y-85709321D01*
X155318316Y-85709321D02*
X155508792Y-85709321D01*
X155032601Y-85852178D02*
X154794506Y-85852178D01*
X155080220Y-86066464D02*
X154913554Y-85316464D01*
X154913554Y-85316464D02*
X154746887Y-86066464D01*
X154627840Y-85316464D02*
X154508792Y-86066464D01*
X154508792Y-86066464D02*
X154413554Y-85530750D01*
X154413554Y-85530750D02*
X154318316Y-86066464D01*
X154318316Y-86066464D02*
X154199269Y-85316464D01*
X166778792Y-90522178D02*
X166826411Y-90486464D01*
X166826411Y-90486464D02*
X166897840Y-90486464D01*
X166897840Y-90486464D02*
X166969268Y-90522178D01*
X166969268Y-90522178D02*
X167016887Y-90593607D01*
X167016887Y-90593607D02*
X167040697Y-90665035D01*
X167040697Y-90665035D02*
X167064506Y-90807892D01*
X167064506Y-90807892D02*
X167064506Y-90915035D01*
X167064506Y-90915035D02*
X167040697Y-91057892D01*
X167040697Y-91057892D02*
X167016887Y-91129321D01*
X167016887Y-91129321D02*
X166969268Y-91200750D01*
X166969268Y-91200750D02*
X166897840Y-91236464D01*
X166897840Y-91236464D02*
X166850221Y-91236464D01*
X166850221Y-91236464D02*
X166778792Y-91200750D01*
X166778792Y-91200750D02*
X166754983Y-91165035D01*
X166754983Y-91165035D02*
X166754983Y-90915035D01*
X166754983Y-90915035D02*
X166850221Y-90915035D01*
X166540697Y-91236464D02*
X166540697Y-90486464D01*
X166540697Y-90486464D02*
X166254983Y-91236464D01*
X166254983Y-91236464D02*
X166254983Y-90486464D01*
X166016887Y-91236464D02*
X166016887Y-90486464D01*
X166016887Y-90486464D02*
X165897839Y-90486464D01*
X165897839Y-90486464D02*
X165826411Y-90522178D01*
X165826411Y-90522178D02*
X165778792Y-90593607D01*
X165778792Y-90593607D02*
X165754982Y-90665035D01*
X165754982Y-90665035D02*
X165731173Y-90807892D01*
X165731173Y-90807892D02*
X165731173Y-90915035D01*
X165731173Y-90915035D02*
X165754982Y-91057892D01*
X165754982Y-91057892D02*
X165778792Y-91129321D01*
X165778792Y-91129321D02*
X165826411Y-91200750D01*
X165826411Y-91200750D02*
X165897839Y-91236464D01*
X165897839Y-91236464D02*
X166016887Y-91236464D01*
X155128792Y-87992178D02*
X155176411Y-87956464D01*
X155176411Y-87956464D02*
X155247840Y-87956464D01*
X155247840Y-87956464D02*
X155319268Y-87992178D01*
X155319268Y-87992178D02*
X155366887Y-88063607D01*
X155366887Y-88063607D02*
X155390697Y-88135035D01*
X155390697Y-88135035D02*
X155414506Y-88277892D01*
X155414506Y-88277892D02*
X155414506Y-88385035D01*
X155414506Y-88385035D02*
X155390697Y-88527892D01*
X155390697Y-88527892D02*
X155366887Y-88599321D01*
X155366887Y-88599321D02*
X155319268Y-88670750D01*
X155319268Y-88670750D02*
X155247840Y-88706464D01*
X155247840Y-88706464D02*
X155200221Y-88706464D01*
X155200221Y-88706464D02*
X155128792Y-88670750D01*
X155128792Y-88670750D02*
X155104983Y-88635035D01*
X155104983Y-88635035D02*
X155104983Y-88385035D01*
X155104983Y-88385035D02*
X155200221Y-88385035D01*
X154890697Y-88706464D02*
X154890697Y-87956464D01*
X154890697Y-87956464D02*
X154604983Y-88706464D01*
X154604983Y-88706464D02*
X154604983Y-87956464D01*
X154366887Y-88706464D02*
X154366887Y-87956464D01*
X154366887Y-87956464D02*
X154247839Y-87956464D01*
X154247839Y-87956464D02*
X154176411Y-87992178D01*
X154176411Y-87992178D02*
X154128792Y-88063607D01*
X154128792Y-88063607D02*
X154104982Y-88135035D01*
X154104982Y-88135035D02*
X154081173Y-88277892D01*
X154081173Y-88277892D02*
X154081173Y-88385035D01*
X154081173Y-88385035D02*
X154104982Y-88527892D01*
X154104982Y-88527892D02*
X154128792Y-88599321D01*
X154128792Y-88599321D02*
X154176411Y-88670750D01*
X154176411Y-88670750D02*
X154247839Y-88706464D01*
X154247839Y-88706464D02*
X154366887Y-88706464D01*
X166758792Y-93102178D02*
X166806411Y-93066464D01*
X166806411Y-93066464D02*
X166877840Y-93066464D01*
X166877840Y-93066464D02*
X166949268Y-93102178D01*
X166949268Y-93102178D02*
X166996887Y-93173607D01*
X166996887Y-93173607D02*
X167020697Y-93245035D01*
X167020697Y-93245035D02*
X167044506Y-93387892D01*
X167044506Y-93387892D02*
X167044506Y-93495035D01*
X167044506Y-93495035D02*
X167020697Y-93637892D01*
X167020697Y-93637892D02*
X166996887Y-93709321D01*
X166996887Y-93709321D02*
X166949268Y-93780750D01*
X166949268Y-93780750D02*
X166877840Y-93816464D01*
X166877840Y-93816464D02*
X166830221Y-93816464D01*
X166830221Y-93816464D02*
X166758792Y-93780750D01*
X166758792Y-93780750D02*
X166734983Y-93745035D01*
X166734983Y-93745035D02*
X166734983Y-93495035D01*
X166734983Y-93495035D02*
X166830221Y-93495035D01*
X166520697Y-93816464D02*
X166520697Y-93066464D01*
X166520697Y-93066464D02*
X166234983Y-93816464D01*
X166234983Y-93816464D02*
X166234983Y-93066464D01*
X165996887Y-93816464D02*
X165996887Y-93066464D01*
X165996887Y-93066464D02*
X165877839Y-93066464D01*
X165877839Y-93066464D02*
X165806411Y-93102178D01*
X165806411Y-93102178D02*
X165758792Y-93173607D01*
X165758792Y-93173607D02*
X165734982Y-93245035D01*
X165734982Y-93245035D02*
X165711173Y-93387892D01*
X165711173Y-93387892D02*
X165711173Y-93495035D01*
X165711173Y-93495035D02*
X165734982Y-93637892D01*
X165734982Y-93637892D02*
X165758792Y-93709321D01*
X165758792Y-93709321D02*
X165806411Y-93780750D01*
X165806411Y-93780750D02*
X165877839Y-93816464D01*
X165877839Y-93816464D02*
X165996887Y-93816464D01*
D11*
X143239904Y-118199819D02*
X142668476Y-118199819D01*
X142954190Y-119199819D02*
X142954190Y-118199819D01*
X141763714Y-119199819D02*
X142097047Y-118723628D01*
X142335142Y-119199819D02*
X142335142Y-118199819D01*
X142335142Y-118199819D02*
X141954190Y-118199819D01*
X141954190Y-118199819D02*
X141858952Y-118247438D01*
X141858952Y-118247438D02*
X141811333Y-118295057D01*
X141811333Y-118295057D02*
X141763714Y-118390295D01*
X141763714Y-118390295D02*
X141763714Y-118533152D01*
X141763714Y-118533152D02*
X141811333Y-118628390D01*
X141811333Y-118628390D02*
X141858952Y-118676009D01*
X141858952Y-118676009D02*
X141954190Y-118723628D01*
X141954190Y-118723628D02*
X142335142Y-118723628D01*
X140763714Y-119199819D02*
X141097047Y-118723628D01*
X141335142Y-119199819D02*
X141335142Y-118199819D01*
X141335142Y-118199819D02*
X140954190Y-118199819D01*
X140954190Y-118199819D02*
X140858952Y-118247438D01*
X140858952Y-118247438D02*
X140811333Y-118295057D01*
X140811333Y-118295057D02*
X140763714Y-118390295D01*
X140763714Y-118390295D02*
X140763714Y-118533152D01*
X140763714Y-118533152D02*
X140811333Y-118628390D01*
X140811333Y-118628390D02*
X140858952Y-118676009D01*
X140858952Y-118676009D02*
X140954190Y-118723628D01*
X140954190Y-118723628D02*
X141335142Y-118723628D01*
X140382761Y-119152200D02*
X140239904Y-119199819D01*
X140239904Y-119199819D02*
X140001809Y-119199819D01*
X140001809Y-119199819D02*
X139906571Y-119152200D01*
X139906571Y-119152200D02*
X139858952Y-119104580D01*
X139858952Y-119104580D02*
X139811333Y-119009342D01*
X139811333Y-119009342D02*
X139811333Y-118914104D01*
X139811333Y-118914104D02*
X139858952Y-118818866D01*
X139858952Y-118818866D02*
X139906571Y-118771247D01*
X139906571Y-118771247D02*
X140001809Y-118723628D01*
X140001809Y-118723628D02*
X140192285Y-118676009D01*
X140192285Y-118676009D02*
X140287523Y-118628390D01*
X140287523Y-118628390D02*
X140335142Y-118580771D01*
X140335142Y-118580771D02*
X140382761Y-118485533D01*
X140382761Y-118485533D02*
X140382761Y-118390295D01*
X140382761Y-118390295D02*
X140335142Y-118295057D01*
X140335142Y-118295057D02*
X140287523Y-118247438D01*
X140287523Y-118247438D02*
X140192285Y-118199819D01*
X140192285Y-118199819D02*
X139954190Y-118199819D01*
X139954190Y-118199819D02*
X139811333Y-118247438D01*
X145363904Y-83397200D02*
X145221047Y-83444819D01*
X145221047Y-83444819D02*
X144982952Y-83444819D01*
X144982952Y-83444819D02*
X144887714Y-83397200D01*
X144887714Y-83397200D02*
X144840095Y-83349580D01*
X144840095Y-83349580D02*
X144792476Y-83254342D01*
X144792476Y-83254342D02*
X144792476Y-83159104D01*
X144792476Y-83159104D02*
X144840095Y-83063866D01*
X144840095Y-83063866D02*
X144887714Y-83016247D01*
X144887714Y-83016247D02*
X144982952Y-82968628D01*
X144982952Y-82968628D02*
X145173428Y-82921009D01*
X145173428Y-82921009D02*
X145268666Y-82873390D01*
X145268666Y-82873390D02*
X145316285Y-82825771D01*
X145316285Y-82825771D02*
X145363904Y-82730533D01*
X145363904Y-82730533D02*
X145363904Y-82635295D01*
X145363904Y-82635295D02*
X145316285Y-82540057D01*
X145316285Y-82540057D02*
X145268666Y-82492438D01*
X145268666Y-82492438D02*
X145173428Y-82444819D01*
X145173428Y-82444819D02*
X144935333Y-82444819D01*
X144935333Y-82444819D02*
X144792476Y-82492438D01*
X144459142Y-82444819D02*
X144221047Y-83444819D01*
X144221047Y-83444819D02*
X144030571Y-82730533D01*
X144030571Y-82730533D02*
X143840095Y-83444819D01*
X143840095Y-83444819D02*
X143602000Y-82444819D01*
X143459143Y-83540057D02*
X142697238Y-83540057D01*
X142459142Y-83444819D02*
X142459142Y-82444819D01*
X142459142Y-82444819D02*
X142078190Y-82444819D01*
X142078190Y-82444819D02*
X141982952Y-82492438D01*
X141982952Y-82492438D02*
X141935333Y-82540057D01*
X141935333Y-82540057D02*
X141887714Y-82635295D01*
X141887714Y-82635295D02*
X141887714Y-82778152D01*
X141887714Y-82778152D02*
X141935333Y-82873390D01*
X141935333Y-82873390D02*
X141982952Y-82921009D01*
X141982952Y-82921009D02*
X142078190Y-82968628D01*
X142078190Y-82968628D02*
X142459142Y-82968628D01*
X141268666Y-82444819D02*
X141078190Y-82444819D01*
X141078190Y-82444819D02*
X140982952Y-82492438D01*
X140982952Y-82492438D02*
X140887714Y-82587676D01*
X140887714Y-82587676D02*
X140840095Y-82778152D01*
X140840095Y-82778152D02*
X140840095Y-83111485D01*
X140840095Y-83111485D02*
X140887714Y-83301961D01*
X140887714Y-83301961D02*
X140982952Y-83397200D01*
X140982952Y-83397200D02*
X141078190Y-83444819D01*
X141078190Y-83444819D02*
X141268666Y-83444819D01*
X141268666Y-83444819D02*
X141363904Y-83397200D01*
X141363904Y-83397200D02*
X141459142Y-83301961D01*
X141459142Y-83301961D02*
X141506761Y-83111485D01*
X141506761Y-83111485D02*
X141506761Y-82778152D01*
X141506761Y-82778152D02*
X141459142Y-82587676D01*
X141459142Y-82587676D02*
X141363904Y-82492438D01*
X141363904Y-82492438D02*
X141268666Y-82444819D01*
X140506761Y-82444819D02*
X140268666Y-83444819D01*
X140268666Y-83444819D02*
X140078190Y-82730533D01*
X140078190Y-82730533D02*
X139887714Y-83444819D01*
X139887714Y-83444819D02*
X139649619Y-82444819D01*
X139268666Y-82921009D02*
X138935333Y-82921009D01*
X138792476Y-83444819D02*
X139268666Y-83444819D01*
X139268666Y-83444819D02*
X139268666Y-82444819D01*
X139268666Y-82444819D02*
X138792476Y-82444819D01*
X137792476Y-83444819D02*
X138125809Y-82968628D01*
X138363904Y-83444819D02*
X138363904Y-82444819D01*
X138363904Y-82444819D02*
X137982952Y-82444819D01*
X137982952Y-82444819D02*
X137887714Y-82492438D01*
X137887714Y-82492438D02*
X137840095Y-82540057D01*
X137840095Y-82540057D02*
X137792476Y-82635295D01*
X137792476Y-82635295D02*
X137792476Y-82778152D01*
X137792476Y-82778152D02*
X137840095Y-82873390D01*
X137840095Y-82873390D02*
X137887714Y-82921009D01*
X137887714Y-82921009D02*
X137982952Y-82968628D01*
X137982952Y-82968628D02*
X138363904Y-82968628D01*
X136792476Y-83444819D02*
X137125809Y-82968628D01*
X137363904Y-83444819D02*
X137363904Y-82444819D01*
X137363904Y-82444819D02*
X136982952Y-82444819D01*
X136982952Y-82444819D02*
X136887714Y-82492438D01*
X136887714Y-82492438D02*
X136840095Y-82540057D01*
X136840095Y-82540057D02*
X136792476Y-82635295D01*
X136792476Y-82635295D02*
X136792476Y-82778152D01*
X136792476Y-82778152D02*
X136840095Y-82873390D01*
X136840095Y-82873390D02*
X136887714Y-82921009D01*
X136887714Y-82921009D02*
X136982952Y-82968628D01*
X136982952Y-82968628D02*
X137363904Y-82968628D01*
X135840095Y-83444819D02*
X136411523Y-83444819D01*
X136125809Y-83444819D02*
X136125809Y-82444819D01*
X136125809Y-82444819D02*
X136221047Y-82587676D01*
X136221047Y-82587676D02*
X136316285Y-82682914D01*
X136316285Y-82682914D02*
X136411523Y-82730533D01*
X165133744Y-83905200D02*
X164990887Y-83952819D01*
X164990887Y-83952819D02*
X164752792Y-83952819D01*
X164752792Y-83952819D02*
X164657554Y-83905200D01*
X164657554Y-83905200D02*
X164609935Y-83857580D01*
X164609935Y-83857580D02*
X164562316Y-83762342D01*
X164562316Y-83762342D02*
X164562316Y-83667104D01*
X164562316Y-83667104D02*
X164609935Y-83571866D01*
X164609935Y-83571866D02*
X164657554Y-83524247D01*
X164657554Y-83524247D02*
X164752792Y-83476628D01*
X164752792Y-83476628D02*
X164943268Y-83429009D01*
X164943268Y-83429009D02*
X165038506Y-83381390D01*
X165038506Y-83381390D02*
X165086125Y-83333771D01*
X165086125Y-83333771D02*
X165133744Y-83238533D01*
X165133744Y-83238533D02*
X165133744Y-83143295D01*
X165133744Y-83143295D02*
X165086125Y-83048057D01*
X165086125Y-83048057D02*
X165038506Y-83000438D01*
X165038506Y-83000438D02*
X164943268Y-82952819D01*
X164943268Y-82952819D02*
X164705173Y-82952819D01*
X164705173Y-82952819D02*
X164562316Y-83000438D01*
X164228982Y-82952819D02*
X163990887Y-83952819D01*
X163990887Y-83952819D02*
X163800411Y-83238533D01*
X163800411Y-83238533D02*
X163609935Y-83952819D01*
X163609935Y-83952819D02*
X163371840Y-82952819D01*
X163228983Y-84048057D02*
X162467078Y-84048057D01*
X162228982Y-83952819D02*
X162228982Y-82952819D01*
X162228982Y-82952819D02*
X161848030Y-82952819D01*
X161848030Y-82952819D02*
X161752792Y-83000438D01*
X161752792Y-83000438D02*
X161705173Y-83048057D01*
X161705173Y-83048057D02*
X161657554Y-83143295D01*
X161657554Y-83143295D02*
X161657554Y-83286152D01*
X161657554Y-83286152D02*
X161705173Y-83381390D01*
X161705173Y-83381390D02*
X161752792Y-83429009D01*
X161752792Y-83429009D02*
X161848030Y-83476628D01*
X161848030Y-83476628D02*
X162228982Y-83476628D01*
X161038506Y-82952819D02*
X160848030Y-82952819D01*
X160848030Y-82952819D02*
X160752792Y-83000438D01*
X160752792Y-83000438D02*
X160657554Y-83095676D01*
X160657554Y-83095676D02*
X160609935Y-83286152D01*
X160609935Y-83286152D02*
X160609935Y-83619485D01*
X160609935Y-83619485D02*
X160657554Y-83809961D01*
X160657554Y-83809961D02*
X160752792Y-83905200D01*
X160752792Y-83905200D02*
X160848030Y-83952819D01*
X160848030Y-83952819D02*
X161038506Y-83952819D01*
X161038506Y-83952819D02*
X161133744Y-83905200D01*
X161133744Y-83905200D02*
X161228982Y-83809961D01*
X161228982Y-83809961D02*
X161276601Y-83619485D01*
X161276601Y-83619485D02*
X161276601Y-83286152D01*
X161276601Y-83286152D02*
X161228982Y-83095676D01*
X161228982Y-83095676D02*
X161133744Y-83000438D01*
X161133744Y-83000438D02*
X161038506Y-82952819D01*
X160276601Y-82952819D02*
X160038506Y-83952819D01*
X160038506Y-83952819D02*
X159848030Y-83238533D01*
X159848030Y-83238533D02*
X159657554Y-83952819D01*
X159657554Y-83952819D02*
X159419459Y-82952819D01*
X159038506Y-83429009D02*
X158705173Y-83429009D01*
X158562316Y-83952819D02*
X159038506Y-83952819D01*
X159038506Y-83952819D02*
X159038506Y-82952819D01*
X159038506Y-82952819D02*
X158562316Y-82952819D01*
X157562316Y-83952819D02*
X157895649Y-83476628D01*
X158133744Y-83952819D02*
X158133744Y-82952819D01*
X158133744Y-82952819D02*
X157752792Y-82952819D01*
X157752792Y-82952819D02*
X157657554Y-83000438D01*
X157657554Y-83000438D02*
X157609935Y-83048057D01*
X157609935Y-83048057D02*
X157562316Y-83143295D01*
X157562316Y-83143295D02*
X157562316Y-83286152D01*
X157562316Y-83286152D02*
X157609935Y-83381390D01*
X157609935Y-83381390D02*
X157657554Y-83429009D01*
X157657554Y-83429009D02*
X157752792Y-83476628D01*
X157752792Y-83476628D02*
X158133744Y-83476628D01*
X156609935Y-83952819D02*
X157181363Y-83952819D01*
X156895649Y-83952819D02*
X156895649Y-82952819D01*
X156895649Y-82952819D02*
X156990887Y-83095676D01*
X156990887Y-83095676D02*
X157086125Y-83190914D01*
X157086125Y-83190914D02*
X157181363Y-83238533D01*
X145190005Y-82736002D02*
X147190005Y-82736002D01*
X145190005Y-84736002D02*
X145190005Y-82736002D01*
X147190005Y-82736002D02*
X147190005Y-84736002D01*
X147190005Y-84736002D02*
X145190005Y-84736002D01*
X133760005Y-82736002D02*
X135760005Y-82736002D01*
X133760005Y-84736002D02*
X133760005Y-82736002D01*
X135760005Y-82736002D02*
X135760005Y-84736002D01*
X135760005Y-84736002D02*
X133760005Y-84736002D01*
D14*
X71882000Y-72326500D02*
G75*
G02*
X72915864Y-68175956I20320120J-2857530D01*
G01*
X72915865Y-82192046D02*
G75*
G02*
X71882000Y-78041500I19286135J7008046D01*
G01*
X85193954Y-55897865D02*
G75*
G02*
X89344500Y-54864000I7008046J-19286135D01*
G01*
X89344500Y-95504000D02*
G75*
G02*
X85193955Y-94470135I2857500J20320000D01*
G01*
X91073615Y-64448136D02*
G75*
G02*
X92202000Y-64389000I1128379J-10735785D01*
G01*
X92202000Y-64389000D02*
G75*
G02*
X93330385Y-64448137I0J-10794900D01*
G01*
X92202000Y-85979000D02*
G75*
G02*
X91073615Y-85919864I-6J10794921D01*
G01*
X93330385Y-85919864D02*
G75*
G02*
X92202000Y-85979001I-1128385J10735764D01*
G01*
X95059500Y-54864000D02*
G75*
G02*
X99210049Y-55897866I-2857500J-20320000D01*
G01*
X99210045Y-94470135D02*
G75*
G02*
X95059500Y-95504000I-7008051J19286154D01*
G01*
X111488134Y-68175952D02*
G75*
G02*
X112522000Y-72326500I-19286134J-7008048D01*
G01*
X112522000Y-78041500D02*
G75*
G02*
X111488134Y-82192048I-20320000J2857500D01*
G01*
D15*
X94282952Y-90410356D02*
X94192108Y-90318080D01*
X94178327Y-90304084D01*
X94146466Y-90271731D01*
X94100519Y-90225077D01*
X94041703Y-90165359D01*
X93971236Y-90093814D01*
X93890337Y-90011677D01*
X93800222Y-89920184D01*
X93702110Y-89820573D01*
X93597218Y-89714080D01*
X93486764Y-89601940D01*
X93371965Y-89485391D01*
X93254040Y-89365668D01*
X92406816Y-88505531D01*
X92695184Y-88502438D01*
X92983552Y-88499344D01*
X93786498Y-89302044D01*
X93786498Y-87668486D01*
X94282952Y-87668486D01*
X94282952Y-90410356D01*
G36*
X94282952Y-90410356D02*
G01*
X94192108Y-90318080D01*
X94178327Y-90304084D01*
X94146466Y-90271731D01*
X94100519Y-90225077D01*
X94041703Y-90165359D01*
X93971236Y-90093814D01*
X93890337Y-90011677D01*
X93800222Y-89920184D01*
X93702110Y-89820573D01*
X93597218Y-89714080D01*
X93486764Y-89601940D01*
X93371965Y-89485391D01*
X93254040Y-89365668D01*
X92406816Y-88505531D01*
X92695184Y-88502438D01*
X92983552Y-88499344D01*
X93786498Y-89302044D01*
X93786498Y-87668486D01*
X94282952Y-87668486D01*
X94282952Y-90410356D01*
G37*
X92989184Y-89700669D02*
X93001413Y-89710717D01*
X93026895Y-89734337D01*
X93063042Y-89769050D01*
X93107266Y-89812375D01*
X93156979Y-89861830D01*
X93318014Y-90023174D01*
X93284132Y-90060989D01*
X93280955Y-90064481D01*
X93259087Y-90087690D01*
X93224741Y-90123436D01*
X93180925Y-90168616D01*
X93130642Y-90220129D01*
X93076900Y-90274872D01*
X92903550Y-90450941D01*
X92283536Y-90450941D01*
X92311837Y-90417306D01*
X92314130Y-90414615D01*
X92334798Y-90391386D01*
X92367556Y-90355546D01*
X92410416Y-90309201D01*
X92461388Y-90254458D01*
X92518484Y-90193423D01*
X92579714Y-90128204D01*
X92643089Y-90060906D01*
X92706622Y-89993636D01*
X92768321Y-89928501D01*
X92826200Y-89867607D01*
X92878267Y-89813061D01*
X92922536Y-89766969D01*
X92957015Y-89731438D01*
X92979718Y-89708575D01*
X92988653Y-89700486D01*
X92989184Y-89700669D01*
G36*
X92989184Y-89700669D02*
G01*
X93001413Y-89710717D01*
X93026895Y-89734337D01*
X93063042Y-89769050D01*
X93107266Y-89812375D01*
X93156979Y-89861830D01*
X93318014Y-90023174D01*
X93284132Y-90060989D01*
X93280955Y-90064481D01*
X93259087Y-90087690D01*
X93224741Y-90123436D01*
X93180925Y-90168616D01*
X93130642Y-90220129D01*
X93076900Y-90274872D01*
X92903550Y-90450941D01*
X92283536Y-90450941D01*
X92311837Y-90417306D01*
X92314130Y-90414615D01*
X92334798Y-90391386D01*
X92367556Y-90355546D01*
X92410416Y-90309201D01*
X92461388Y-90254458D01*
X92518484Y-90193423D01*
X92579714Y-90128204D01*
X92643089Y-90060906D01*
X92706622Y-89993636D01*
X92768321Y-89928501D01*
X92826200Y-89867607D01*
X92878267Y-89813061D01*
X92922536Y-89766969D01*
X92957015Y-89731438D01*
X92979718Y-89708575D01*
X92988653Y-89700486D01*
X92989184Y-89700669D01*
G37*
X92082062Y-89564292D02*
X92079717Y-89614364D01*
X92077104Y-89642759D01*
X92068235Y-89689209D01*
X92030682Y-89816369D01*
X91975516Y-89942232D01*
X91905824Y-90060414D01*
X91824693Y-90164534D01*
X91816299Y-90173700D01*
X91707987Y-90274026D01*
X91585567Y-90358023D01*
X91452394Y-90424002D01*
X91311826Y-90470277D01*
X91167218Y-90495158D01*
X91066972Y-90499641D01*
X90918551Y-90488242D01*
X90775132Y-90455989D01*
X90638896Y-90403966D01*
X90512021Y-90333252D01*
X90396688Y-90244930D01*
X90295075Y-90140081D01*
X90209363Y-90019788D01*
X90152108Y-89912869D01*
X90098963Y-89773633D01*
X90067607Y-89629069D01*
X90061103Y-89532705D01*
X90556342Y-89532705D01*
X90556624Y-89537995D01*
X90560942Y-89593298D01*
X90568299Y-89635590D01*
X90580944Y-89674198D01*
X90601125Y-89718444D01*
X90622613Y-89756771D01*
X90664098Y-89815565D01*
X90712155Y-89871021D01*
X90761478Y-89917215D01*
X90806764Y-89948219D01*
X90822931Y-89955995D01*
X90863836Y-89973355D01*
X90906833Y-89989441D01*
X90979660Y-90008729D01*
X91083361Y-90017250D01*
X91184902Y-90004456D01*
X91281688Y-89971324D01*
X91371120Y-89918831D01*
X91450601Y-89847954D01*
X91517535Y-89759671D01*
X91546189Y-89705526D01*
X91576621Y-89611507D01*
X91587193Y-89513958D01*
X91578887Y-89416010D01*
X91552685Y-89320797D01*
X91509572Y-89231450D01*
X91450529Y-89151104D01*
X91376539Y-89082890D01*
X91288587Y-89029941D01*
X91274584Y-89023655D01*
X91176238Y-88993030D01*
X91074886Y-88982848D01*
X90973982Y-88992168D01*
X90876983Y-89020046D01*
X90787347Y-89065542D01*
X90708530Y-89127712D01*
X90643988Y-89205616D01*
X90626218Y-89234145D01*
X90582566Y-89327568D01*
X90559710Y-89425460D01*
X90556342Y-89532705D01*
X90061103Y-89532705D01*
X90057316Y-89476591D01*
X90060877Y-89386921D01*
X90083558Y-89236642D01*
X90126310Y-89094673D01*
X90188120Y-88962688D01*
X90267978Y-88842363D01*
X90364872Y-88735374D01*
X90477792Y-88643394D01*
X90605725Y-88568101D01*
X90675576Y-88535462D01*
X90750714Y-88506245D01*
X90822366Y-88486753D01*
X90898849Y-88474816D01*
X90988484Y-88468264D01*
X91006296Y-88467596D01*
X91145497Y-88474034D01*
X91275880Y-88501710D01*
X91398096Y-88550814D01*
X91512793Y-88621536D01*
X91536927Y-88638738D01*
X91561773Y-88655081D01*
X91574204Y-88661395D01*
X91575112Y-88657365D01*
X91576561Y-88633558D01*
X91577888Y-88590435D01*
X91579057Y-88530360D01*
X91580033Y-88455698D01*
X91580783Y-88368812D01*
X91581272Y-88272067D01*
X91581464Y-88167827D01*
X91581612Y-87674259D01*
X92089316Y-88184285D01*
X92089229Y-88875999D01*
X92089226Y-88887735D01*
X92088965Y-89038209D01*
X92088301Y-89175481D01*
X92087257Y-89298137D01*
X92085854Y-89404766D01*
X92084115Y-89493955D01*
X92083531Y-89513958D01*
X92082062Y-89564292D01*
G36*
X92082062Y-89564292D02*
G01*
X92079717Y-89614364D01*
X92077104Y-89642759D01*
X92068235Y-89689209D01*
X92030682Y-89816369D01*
X91975516Y-89942232D01*
X91905824Y-90060414D01*
X91824693Y-90164534D01*
X91816299Y-90173700D01*
X91707987Y-90274026D01*
X91585567Y-90358023D01*
X91452394Y-90424002D01*
X91311826Y-90470277D01*
X91167218Y-90495158D01*
X91066972Y-90499641D01*
X90918551Y-90488242D01*
X90775132Y-90455989D01*
X90638896Y-90403966D01*
X90512021Y-90333252D01*
X90396688Y-90244930D01*
X90295075Y-90140081D01*
X90209363Y-90019788D01*
X90152108Y-89912869D01*
X90098963Y-89773633D01*
X90067607Y-89629069D01*
X90061103Y-89532705D01*
X90556342Y-89532705D01*
X90556624Y-89537995D01*
X90560942Y-89593298D01*
X90568299Y-89635590D01*
X90580944Y-89674198D01*
X90601125Y-89718444D01*
X90622613Y-89756771D01*
X90664098Y-89815565D01*
X90712155Y-89871021D01*
X90761478Y-89917215D01*
X90806764Y-89948219D01*
X90822931Y-89955995D01*
X90863836Y-89973355D01*
X90906833Y-89989441D01*
X90979660Y-90008729D01*
X91083361Y-90017250D01*
X91184902Y-90004456D01*
X91281688Y-89971324D01*
X91371120Y-89918831D01*
X91450601Y-89847954D01*
X91517535Y-89759671D01*
X91546189Y-89705526D01*
X91576621Y-89611507D01*
X91587193Y-89513958D01*
X91578887Y-89416010D01*
X91552685Y-89320797D01*
X91509572Y-89231450D01*
X91450529Y-89151104D01*
X91376539Y-89082890D01*
X91288587Y-89029941D01*
X91274584Y-89023655D01*
X91176238Y-88993030D01*
X91074886Y-88982848D01*
X90973982Y-88992168D01*
X90876983Y-89020046D01*
X90787347Y-89065542D01*
X90708530Y-89127712D01*
X90643988Y-89205616D01*
X90626218Y-89234145D01*
X90582566Y-89327568D01*
X90559710Y-89425460D01*
X90556342Y-89532705D01*
X90061103Y-89532705D01*
X90057316Y-89476591D01*
X90060877Y-89386921D01*
X90083558Y-89236642D01*
X90126310Y-89094673D01*
X90188120Y-88962688D01*
X90267978Y-88842363D01*
X90364872Y-88735374D01*
X90477792Y-88643394D01*
X90605725Y-88568101D01*
X90675576Y-88535462D01*
X90750714Y-88506245D01*
X90822366Y-88486753D01*
X90898849Y-88474816D01*
X90988484Y-88468264D01*
X91006296Y-88467596D01*
X91145497Y-88474034D01*
X91275880Y-88501710D01*
X91398096Y-88550814D01*
X91512793Y-88621536D01*
X91536927Y-88638738D01*
X91561773Y-88655081D01*
X91574204Y-88661395D01*
X91575112Y-88657365D01*
X91576561Y-88633558D01*
X91577888Y-88590435D01*
X91579057Y-88530360D01*
X91580033Y-88455698D01*
X91580783Y-88368812D01*
X91581272Y-88272067D01*
X91581464Y-88167827D01*
X91581612Y-87674259D01*
X92089316Y-88184285D01*
X92089229Y-88875999D01*
X92089226Y-88887735D01*
X92088965Y-89038209D01*
X92088301Y-89175481D01*
X92087257Y-89298137D01*
X92085854Y-89404766D01*
X92084115Y-89493955D01*
X92083531Y-89513958D01*
X92082062Y-89564292D01*
G37*
D11*
X165459840Y-82482002D02*
X167459840Y-82482002D01*
X165459840Y-84482002D02*
X165459840Y-82482002D01*
X167459840Y-82482002D02*
X167459840Y-84482002D01*
X167459840Y-84482002D02*
X165459840Y-84482002D01*
X154029840Y-82482002D02*
X156029840Y-82482002D01*
X154029840Y-84482002D02*
X154029840Y-82482002D01*
X156029840Y-82482002D02*
X156029840Y-84482002D01*
X156029840Y-84482002D02*
X154029840Y-84482002D01*
D14*
X187949840Y-72453500D02*
G75*
G02*
X188983704Y-68302956I20320120J-2857530D01*
G01*
X188983705Y-82319046D02*
G75*
G02*
X187949840Y-78168500I19286135J7008046D01*
G01*
X201261794Y-56024865D02*
G75*
G02*
X205412340Y-54991000I7008046J-19286135D01*
G01*
X205412340Y-95631000D02*
G75*
G02*
X201261795Y-94597135I2857500J20320000D01*
G01*
X207141455Y-64575136D02*
G75*
G02*
X208269840Y-64516000I1128379J-10735785D01*
G01*
X208269840Y-64516000D02*
G75*
G02*
X209398225Y-64575137I0J-10794900D01*
G01*
X208269840Y-86106000D02*
G75*
G02*
X207141455Y-86046864I-6J10794921D01*
G01*
X209398225Y-86046864D02*
G75*
G02*
X208269840Y-86106001I-1128385J10735764D01*
G01*
X211127340Y-54991000D02*
G75*
G02*
X215277889Y-56024866I-2857500J-20320000D01*
G01*
X215277885Y-94597135D02*
G75*
G02*
X211127340Y-95631000I-7008051J19286154D01*
G01*
X227555974Y-68302952D02*
G75*
G02*
X228589840Y-72453500I-19286134J-7008048D01*
G01*
X228589840Y-78168500D02*
G75*
G02*
X227555974Y-82319048I-20320000J2857500D01*
G01*
D15*
X210350792Y-90537356D02*
X210259948Y-90445080D01*
X210246167Y-90431084D01*
X210214306Y-90398731D01*
X210168359Y-90352077D01*
X210109543Y-90292359D01*
X210039076Y-90220814D01*
X209958177Y-90138677D01*
X209868062Y-90047184D01*
X209769950Y-89947573D01*
X209665058Y-89841080D01*
X209554604Y-89728940D01*
X209439805Y-89612391D01*
X209321880Y-89492668D01*
X208474656Y-88632531D01*
X208763024Y-88629438D01*
X209051392Y-88626344D01*
X209854338Y-89429044D01*
X209854338Y-87795486D01*
X210350792Y-87795486D01*
X210350792Y-90537356D01*
G36*
X210350792Y-90537356D02*
G01*
X210259948Y-90445080D01*
X210246167Y-90431084D01*
X210214306Y-90398731D01*
X210168359Y-90352077D01*
X210109543Y-90292359D01*
X210039076Y-90220814D01*
X209958177Y-90138677D01*
X209868062Y-90047184D01*
X209769950Y-89947573D01*
X209665058Y-89841080D01*
X209554604Y-89728940D01*
X209439805Y-89612391D01*
X209321880Y-89492668D01*
X208474656Y-88632531D01*
X208763024Y-88629438D01*
X209051392Y-88626344D01*
X209854338Y-89429044D01*
X209854338Y-87795486D01*
X210350792Y-87795486D01*
X210350792Y-90537356D01*
G37*
X209057024Y-89827669D02*
X209069253Y-89837717D01*
X209094735Y-89861337D01*
X209130882Y-89896050D01*
X209175106Y-89939375D01*
X209224819Y-89988830D01*
X209385854Y-90150174D01*
X209351972Y-90187989D01*
X209348795Y-90191481D01*
X209326927Y-90214690D01*
X209292581Y-90250436D01*
X209248765Y-90295616D01*
X209198482Y-90347129D01*
X209144740Y-90401872D01*
X208971390Y-90577941D01*
X208351376Y-90577941D01*
X208379677Y-90544306D01*
X208381970Y-90541615D01*
X208402638Y-90518386D01*
X208435396Y-90482546D01*
X208478256Y-90436201D01*
X208529228Y-90381458D01*
X208586324Y-90320423D01*
X208647554Y-90255204D01*
X208710929Y-90187906D01*
X208774462Y-90120636D01*
X208836161Y-90055501D01*
X208894040Y-89994607D01*
X208946107Y-89940061D01*
X208990376Y-89893969D01*
X209024855Y-89858438D01*
X209047558Y-89835575D01*
X209056493Y-89827486D01*
X209057024Y-89827669D01*
G36*
X209057024Y-89827669D02*
G01*
X209069253Y-89837717D01*
X209094735Y-89861337D01*
X209130882Y-89896050D01*
X209175106Y-89939375D01*
X209224819Y-89988830D01*
X209385854Y-90150174D01*
X209351972Y-90187989D01*
X209348795Y-90191481D01*
X209326927Y-90214690D01*
X209292581Y-90250436D01*
X209248765Y-90295616D01*
X209198482Y-90347129D01*
X209144740Y-90401872D01*
X208971390Y-90577941D01*
X208351376Y-90577941D01*
X208379677Y-90544306D01*
X208381970Y-90541615D01*
X208402638Y-90518386D01*
X208435396Y-90482546D01*
X208478256Y-90436201D01*
X208529228Y-90381458D01*
X208586324Y-90320423D01*
X208647554Y-90255204D01*
X208710929Y-90187906D01*
X208774462Y-90120636D01*
X208836161Y-90055501D01*
X208894040Y-89994607D01*
X208946107Y-89940061D01*
X208990376Y-89893969D01*
X209024855Y-89858438D01*
X209047558Y-89835575D01*
X209056493Y-89827486D01*
X209057024Y-89827669D01*
G37*
X208149902Y-89691292D02*
X208147557Y-89741364D01*
X208144944Y-89769759D01*
X208136075Y-89816209D01*
X208098522Y-89943369D01*
X208043356Y-90069232D01*
X207973664Y-90187414D01*
X207892533Y-90291534D01*
X207884139Y-90300700D01*
X207775827Y-90401026D01*
X207653407Y-90485023D01*
X207520234Y-90551002D01*
X207379666Y-90597277D01*
X207235058Y-90622158D01*
X207134812Y-90626641D01*
X206986391Y-90615242D01*
X206842972Y-90582989D01*
X206706736Y-90530966D01*
X206579861Y-90460252D01*
X206464528Y-90371930D01*
X206362915Y-90267081D01*
X206277203Y-90146788D01*
X206219948Y-90039869D01*
X206166803Y-89900633D01*
X206135447Y-89756069D01*
X206128943Y-89659705D01*
X206624182Y-89659705D01*
X206624464Y-89664995D01*
X206628782Y-89720298D01*
X206636139Y-89762590D01*
X206648784Y-89801198D01*
X206668965Y-89845444D01*
X206690453Y-89883771D01*
X206731938Y-89942565D01*
X206779995Y-89998021D01*
X206829318Y-90044215D01*
X206874604Y-90075219D01*
X206890771Y-90082995D01*
X206931676Y-90100355D01*
X206974673Y-90116441D01*
X207047500Y-90135729D01*
X207151201Y-90144250D01*
X207252742Y-90131456D01*
X207349528Y-90098324D01*
X207438960Y-90045831D01*
X207518441Y-89974954D01*
X207585375Y-89886671D01*
X207614029Y-89832526D01*
X207644461Y-89738507D01*
X207655033Y-89640958D01*
X207646727Y-89543010D01*
X207620525Y-89447797D01*
X207577412Y-89358450D01*
X207518369Y-89278104D01*
X207444379Y-89209890D01*
X207356427Y-89156941D01*
X207342424Y-89150655D01*
X207244078Y-89120030D01*
X207142726Y-89109848D01*
X207041822Y-89119168D01*
X206944823Y-89147046D01*
X206855187Y-89192542D01*
X206776370Y-89254712D01*
X206711828Y-89332616D01*
X206694058Y-89361145D01*
X206650406Y-89454568D01*
X206627550Y-89552460D01*
X206624182Y-89659705D01*
X206128943Y-89659705D01*
X206125156Y-89603591D01*
X206128717Y-89513921D01*
X206151398Y-89363642D01*
X206194150Y-89221673D01*
X206255960Y-89089688D01*
X206335818Y-88969363D01*
X206432712Y-88862374D01*
X206545632Y-88770394D01*
X206673565Y-88695101D01*
X206743416Y-88662462D01*
X206818554Y-88633245D01*
X206890206Y-88613753D01*
X206966689Y-88601816D01*
X207056324Y-88595264D01*
X207074136Y-88594596D01*
X207213337Y-88601034D01*
X207343720Y-88628710D01*
X207465936Y-88677814D01*
X207580633Y-88748536D01*
X207604767Y-88765738D01*
X207629613Y-88782081D01*
X207642044Y-88788395D01*
X207642952Y-88784365D01*
X207644401Y-88760558D01*
X207645728Y-88717435D01*
X207646897Y-88657360D01*
X207647873Y-88582698D01*
X207648623Y-88495812D01*
X207649112Y-88399067D01*
X207649304Y-88294827D01*
X207649452Y-87801259D01*
X208157156Y-88311285D01*
X208157069Y-89002999D01*
X208157066Y-89014735D01*
X208156805Y-89165209D01*
X208156141Y-89302481D01*
X208155097Y-89425137D01*
X208153694Y-89531766D01*
X208151955Y-89620955D01*
X208151371Y-89640958D01*
X208149902Y-89691292D01*
G36*
X208149902Y-89691292D02*
G01*
X208147557Y-89741364D01*
X208144944Y-89769759D01*
X208136075Y-89816209D01*
X208098522Y-89943369D01*
X208043356Y-90069232D01*
X207973664Y-90187414D01*
X207892533Y-90291534D01*
X207884139Y-90300700D01*
X207775827Y-90401026D01*
X207653407Y-90485023D01*
X207520234Y-90551002D01*
X207379666Y-90597277D01*
X207235058Y-90622158D01*
X207134812Y-90626641D01*
X206986391Y-90615242D01*
X206842972Y-90582989D01*
X206706736Y-90530966D01*
X206579861Y-90460252D01*
X206464528Y-90371930D01*
X206362915Y-90267081D01*
X206277203Y-90146788D01*
X206219948Y-90039869D01*
X206166803Y-89900633D01*
X206135447Y-89756069D01*
X206128943Y-89659705D01*
X206624182Y-89659705D01*
X206624464Y-89664995D01*
X206628782Y-89720298D01*
X206636139Y-89762590D01*
X206648784Y-89801198D01*
X206668965Y-89845444D01*
X206690453Y-89883771D01*
X206731938Y-89942565D01*
X206779995Y-89998021D01*
X206829318Y-90044215D01*
X206874604Y-90075219D01*
X206890771Y-90082995D01*
X206931676Y-90100355D01*
X206974673Y-90116441D01*
X207047500Y-90135729D01*
X207151201Y-90144250D01*
X207252742Y-90131456D01*
X207349528Y-90098324D01*
X207438960Y-90045831D01*
X207518441Y-89974954D01*
X207585375Y-89886671D01*
X207614029Y-89832526D01*
X207644461Y-89738507D01*
X207655033Y-89640958D01*
X207646727Y-89543010D01*
X207620525Y-89447797D01*
X207577412Y-89358450D01*
X207518369Y-89278104D01*
X207444379Y-89209890D01*
X207356427Y-89156941D01*
X207342424Y-89150655D01*
X207244078Y-89120030D01*
X207142726Y-89109848D01*
X207041822Y-89119168D01*
X206944823Y-89147046D01*
X206855187Y-89192542D01*
X206776370Y-89254712D01*
X206711828Y-89332616D01*
X206694058Y-89361145D01*
X206650406Y-89454568D01*
X206627550Y-89552460D01*
X206624182Y-89659705D01*
X206128943Y-89659705D01*
X206125156Y-89603591D01*
X206128717Y-89513921D01*
X206151398Y-89363642D01*
X206194150Y-89221673D01*
X206255960Y-89089688D01*
X206335818Y-88969363D01*
X206432712Y-88862374D01*
X206545632Y-88770394D01*
X206673565Y-88695101D01*
X206743416Y-88662462D01*
X206818554Y-88633245D01*
X206890206Y-88613753D01*
X206966689Y-88601816D01*
X207056324Y-88595264D01*
X207074136Y-88594596D01*
X207213337Y-88601034D01*
X207343720Y-88628710D01*
X207465936Y-88677814D01*
X207580633Y-88748536D01*
X207604767Y-88765738D01*
X207629613Y-88782081D01*
X207642044Y-88788395D01*
X207642952Y-88784365D01*
X207644401Y-88760558D01*
X207645728Y-88717435D01*
X207646897Y-88657360D01*
X207647873Y-88582698D01*
X207648623Y-88495812D01*
X207649112Y-88399067D01*
X207649304Y-88294827D01*
X207649452Y-87801259D01*
X208157156Y-88311285D01*
X208157069Y-89002999D01*
X208157066Y-89014735D01*
X208156805Y-89165209D01*
X208156141Y-89302481D01*
X208155097Y-89425137D01*
X208153694Y-89531766D01*
X208151955Y-89620955D01*
X208151371Y-89640958D01*
X208149902Y-89691292D01*
G37*
D16*
X125744000Y-115102000D02*
X129044000Y-115102000D01*
X125744000Y-115402000D02*
X125744000Y-115102000D01*
X125744000Y-117602000D02*
X125744000Y-117902000D01*
X125744000Y-117902000D02*
X129044000Y-117902000D01*
X129044000Y-115102000D02*
X129044000Y-115402000D01*
X129044000Y-117902000D02*
X129044000Y-117602000D01*
X170397840Y-115356000D02*
X173697840Y-115356000D01*
X170397840Y-115656000D02*
X170397840Y-115356000D01*
X170397840Y-117856000D02*
X170397840Y-118156000D01*
X170397840Y-118156000D02*
X173697840Y-118156000D01*
X173697840Y-115356000D02*
X173697840Y-115656000D01*
X173697840Y-118156000D02*
X173697840Y-117856000D01*
%LPC*%
D17*
X146190005Y-83736002D03*
X134760005Y-83736002D03*
D18*
X39900000Y-80900000D03*
D19*
X41869131Y-73706855D03*
D20*
X42500000Y-73000000D03*
D21*
X45000000Y-82900000D03*
D22*
X47500000Y-72200000D03*
D23*
X48900042Y-71459599D03*
D18*
X58900000Y-68900000D03*
D19*
X60869131Y-61706855D03*
D20*
X61500000Y-61000000D03*
D21*
X64000000Y-70900000D03*
D22*
X66500000Y-60200000D03*
D23*
X67900042Y-59459599D03*
D18*
X77900000Y-62760000D03*
D19*
X79869131Y-55566855D03*
D20*
X80500000Y-54860000D03*
D21*
X83000000Y-64760000D03*
D22*
X85500000Y-54060000D03*
D23*
X86900042Y-53319599D03*
D18*
X96894000Y-67332000D03*
D19*
X98863131Y-60138855D03*
D20*
X99494000Y-59432000D03*
D21*
X101994000Y-69332000D03*
D22*
X104494000Y-58632000D03*
D23*
X105894042Y-57891599D03*
D18*
X115900000Y-69900000D03*
D19*
X117869131Y-62706855D03*
D20*
X118500000Y-62000000D03*
D21*
X121000000Y-71900000D03*
D22*
X123500000Y-61200000D03*
D23*
X124900042Y-60459599D03*
D18*
X39900000Y-99900000D03*
D19*
X41869131Y-92706855D03*
D20*
X42500000Y-92000000D03*
D21*
X45000000Y-101900000D03*
D22*
X47500000Y-91200000D03*
D23*
X48900042Y-90459599D03*
D18*
X58900000Y-87974000D03*
D19*
X60869131Y-80780855D03*
D20*
X61500000Y-80074000D03*
D21*
X64000000Y-89974000D03*
D22*
X66500000Y-79274000D03*
D23*
X67900042Y-78533599D03*
D18*
X77900000Y-81778000D03*
D19*
X79869131Y-74584855D03*
D20*
X80500000Y-73878000D03*
D21*
X83000000Y-83778000D03*
D22*
X85500000Y-73078000D03*
D23*
X86900042Y-72337599D03*
D18*
X96900000Y-86350000D03*
D19*
X98869131Y-79156855D03*
D20*
X99500000Y-78450000D03*
D21*
X102000000Y-88350000D03*
D22*
X104500000Y-77650000D03*
D23*
X105900042Y-76909599D03*
D18*
X115880000Y-88890000D03*
D19*
X117849131Y-81696855D03*
D20*
X118480000Y-80990000D03*
D21*
X120980000Y-90890000D03*
D22*
X123480000Y-80190000D03*
D23*
X124880042Y-79449599D03*
D18*
X39900000Y-118900000D03*
D19*
X41869131Y-111706855D03*
D20*
X42500000Y-111000000D03*
D21*
X45000000Y-120900000D03*
D22*
X47500000Y-110200000D03*
D23*
X48900042Y-109459599D03*
D18*
X58908000Y-107024000D03*
D19*
X60877131Y-99830855D03*
D20*
X61508000Y-99124000D03*
D21*
X64008000Y-109024000D03*
D22*
X66508000Y-98324000D03*
D23*
X67908042Y-97583599D03*
D18*
X77900000Y-100796000D03*
D19*
X79869131Y-93602855D03*
D20*
X80500000Y-92896000D03*
D21*
X83000000Y-102796000D03*
D22*
X85500000Y-92096000D03*
D23*
X86900042Y-91355599D03*
D18*
X96900000Y-105368000D03*
D19*
X98869131Y-98174855D03*
D20*
X99500000Y-97468000D03*
D21*
X102000000Y-107368000D03*
D22*
X104500000Y-96668000D03*
D23*
X105900042Y-95927599D03*
D24*
X124583270Y-133331499D03*
D25*
X129885160Y-128086618D03*
D20*
X130784936Y-127789898D03*
D26*
X128000000Y-137613550D03*
D27*
X135515064Y-129597078D03*
D28*
X137097736Y-129655893D03*
D29*
X105336384Y-126735134D03*
D30*
X109100141Y-120296738D03*
D20*
X109892462Y-119777249D03*
D31*
X109744968Y-129986962D03*
D32*
X114929146Y-120298604D03*
D33*
X116473113Y-119945789D03*
D34*
X73152000Y-75184000D03*
X92202000Y-56134000D03*
X92202000Y-94234000D03*
X111252000Y-75184000D03*
D18*
X115880000Y-107908000D03*
D19*
X117849131Y-100714855D03*
D20*
X118480000Y-100008000D03*
D21*
X120980000Y-109908000D03*
D22*
X123480000Y-99208000D03*
D23*
X124880042Y-98467599D03*
D35*
X147705400Y-85768000D03*
X147705400Y-88308000D03*
X147705400Y-90848000D03*
X147705400Y-93388000D03*
X147705400Y-95928000D03*
X147705400Y-98468000D03*
X147705400Y-101008000D03*
X147705400Y-103548000D03*
X147705400Y-106088000D03*
X147705400Y-108628000D03*
X147705400Y-111168000D03*
X147705400Y-113708000D03*
X132485400Y-113708000D03*
X132485400Y-111168000D03*
X132485400Y-108628000D03*
X132485400Y-106088000D03*
X132485400Y-103548000D03*
X132485400Y-101008000D03*
X132485400Y-98468000D03*
X132485400Y-95928000D03*
X132485400Y-93388000D03*
X132485400Y-90848000D03*
X132485400Y-88308000D03*
X132485400Y-85768000D03*
D17*
X166459840Y-83482002D03*
X155029840Y-83482002D03*
D34*
X189219840Y-75311000D03*
X208269840Y-56261000D03*
X208269840Y-94361000D03*
X227319840Y-75311000D03*
D36*
X155867840Y-118734000D03*
X162867840Y-118734000D03*
D37*
X160487840Y-121064000D03*
X160467840Y-116434000D03*
X157487840Y-121064000D03*
X157467840Y-116434000D03*
X165567840Y-121034000D03*
X165587840Y-116464000D03*
X164487840Y-121064000D03*
X164467840Y-116434000D03*
D18*
X193485840Y-86318000D03*
D19*
X195454971Y-79124855D03*
D20*
X196085840Y-78418000D03*
D21*
X198585840Y-88318000D03*
D22*
X201085840Y-77618000D03*
D23*
X202485882Y-76877599D03*
D18*
X250531840Y-118900000D03*
D19*
X252500971Y-111706855D03*
D20*
X253131840Y-111000000D03*
D21*
X255631840Y-120900000D03*
D22*
X258131840Y-110200000D03*
D23*
X259531882Y-109459599D03*
D18*
X212487840Y-100796000D03*
D19*
X214456971Y-93602855D03*
D20*
X215087840Y-92896000D03*
D21*
X217587840Y-102796000D03*
D22*
X220087840Y-92096000D03*
D23*
X221487882Y-91355599D03*
D18*
X193485840Y-105368000D03*
D19*
X195454971Y-98174855D03*
D20*
X196085840Y-97468000D03*
D21*
X198585840Y-107368000D03*
D22*
X201085840Y-96668000D03*
D23*
X202485882Y-95927599D03*
D18*
X193485840Y-67268000D03*
D19*
X195454971Y-60074855D03*
D20*
X196085840Y-59368000D03*
D21*
X198585840Y-69268000D03*
D22*
X201085840Y-58568000D03*
D23*
X202485882Y-57827599D03*
D18*
X231513840Y-68900000D03*
D19*
X233482971Y-61706855D03*
D20*
X234113840Y-61000000D03*
D21*
X236613840Y-70900000D03*
D22*
X239113840Y-60200000D03*
D23*
X240513882Y-59459599D03*
D18*
X212487840Y-62760000D03*
D19*
X214456971Y-55566855D03*
D20*
X215087840Y-54860000D03*
D21*
X217587840Y-64760000D03*
D22*
X220087840Y-54060000D03*
D23*
X221487882Y-53319599D03*
D18*
X231513840Y-87874000D03*
D19*
X233482971Y-80680855D03*
D20*
X234113840Y-79974000D03*
D21*
X236613840Y-89874000D03*
D22*
X239113840Y-79174000D03*
D23*
X240513882Y-78433599D03*
D18*
X212487840Y-81778000D03*
D19*
X214456971Y-74584855D03*
D20*
X215087840Y-73878000D03*
D21*
X217587840Y-83778000D03*
D22*
X220087840Y-73078000D03*
D23*
X221487882Y-72337599D03*
D18*
X231513840Y-106892000D03*
D19*
X233482971Y-99698855D03*
D20*
X234113840Y-98992000D03*
D21*
X236613840Y-108892000D03*
D22*
X239113840Y-98192000D03*
D23*
X240513882Y-97451599D03*
D18*
X174485840Y-88890000D03*
D19*
X176454971Y-81696855D03*
D20*
X177085840Y-80990000D03*
D21*
X179585840Y-90890000D03*
D22*
X182085840Y-80190000D03*
D23*
X183485882Y-79449599D03*
D18*
X250531840Y-99900000D03*
D19*
X252500971Y-92706855D03*
D20*
X253131840Y-92000000D03*
D21*
X255631840Y-101900000D03*
D22*
X258131840Y-91200000D03*
D23*
X259531882Y-90459599D03*
D18*
X250531840Y-80900000D03*
D19*
X252500971Y-73706855D03*
D20*
X253131840Y-73000000D03*
D21*
X255631840Y-82900000D03*
D22*
X258131840Y-72200000D03*
D23*
X259531882Y-71459599D03*
D18*
X174485840Y-69900000D03*
D19*
X176454971Y-62706855D03*
D20*
X177085840Y-62000000D03*
D21*
X179585840Y-71900000D03*
D22*
X182085840Y-61200000D03*
D23*
X183485882Y-60459599D03*
D38*
X166784270Y-138469499D03*
D39*
X164893015Y-131255487D03*
D20*
X165085936Y-130327898D03*
D40*
X172201000Y-137651550D03*
D41*
X169016064Y-127135078D03*
D42*
X169858335Y-125793851D03*
D18*
X174485840Y-107908000D03*
D19*
X176454971Y-100714855D03*
D20*
X177085840Y-100008000D03*
D21*
X179585840Y-109908000D03*
D22*
X182085840Y-99208000D03*
D23*
X183485882Y-98467599D03*
D43*
X185263013Y-129497088D03*
D44*
X185303323Y-122039395D03*
D20*
X185729749Y-121193344D03*
D45*
X190706872Y-130108962D03*
D46*
X190352323Y-119126508D03*
D47*
X191513030Y-118048977D03*
D35*
X168129240Y-85768000D03*
X168129240Y-88308000D03*
X168129240Y-90848000D03*
X168129240Y-93388000D03*
X168129240Y-95928000D03*
X168129240Y-98468000D03*
X168129240Y-101008000D03*
X168129240Y-103548000D03*
X168129240Y-106088000D03*
X168129240Y-108628000D03*
X168129240Y-111168000D03*
X168129240Y-113708000D03*
X152909240Y-113708000D03*
X152909240Y-111168000D03*
X152909240Y-108628000D03*
X152909240Y-106088000D03*
X152909240Y-103548000D03*
X152909240Y-101008000D03*
X152909240Y-98468000D03*
X152909240Y-95928000D03*
X152909240Y-93388000D03*
X152909240Y-90848000D03*
X152909240Y-88308000D03*
X152909240Y-85768000D03*
D48*
X149225000Y-88646000D03*
X149225000Y-89662000D03*
X149225000Y-90678000D03*
X149225000Y-91694000D03*
X149225000Y-92710000D03*
X151257000Y-88646000D03*
X151257000Y-89662000D03*
X151257000Y-90678000D03*
X151257000Y-91694000D03*
X151257000Y-92710000D03*
X149225000Y-109156500D03*
X149225000Y-110172500D03*
X149225000Y-111188500D03*
X149225000Y-112204500D03*
X149225000Y-113220500D03*
X151257000Y-109156500D03*
X151257000Y-110172500D03*
X151257000Y-111188500D03*
X151257000Y-112204500D03*
X151257000Y-113220500D03*
D36*
X144590000Y-118734000D03*
X137590000Y-118734000D03*
D37*
X139970000Y-116404000D03*
X139990000Y-121034000D03*
X142970000Y-116404000D03*
X142990000Y-121034000D03*
X134890000Y-116434000D03*
X134870000Y-121004000D03*
X135970000Y-116404000D03*
X135990000Y-121034000D03*
D49*
X142102000Y-83990000D03*
X139102000Y-83990000D03*
D50*
X144302000Y-85090000D03*
X144302000Y-82890000D03*
X136902000Y-85090000D03*
X136902000Y-82890000D03*
D51*
X138352000Y-86065000D03*
X141352000Y-86065000D03*
X142852000Y-86065000D03*
D52*
X125694000Y-116502000D03*
X129094000Y-116502000D03*
D49*
X162371840Y-84498000D03*
X159371840Y-84498000D03*
D50*
X164571840Y-85598000D03*
X164571840Y-83398000D03*
X157171840Y-85598000D03*
X157171840Y-83398000D03*
D51*
X158621840Y-86573000D03*
X161621840Y-86573000D03*
X163121840Y-86573000D03*
D52*
X170347840Y-116756000D03*
X173747840Y-116756000D03*
%LPD*%
M02*
