M48
; DRILL file {KiCad 9.0.6} date 2025-11-13T20:31:36-0800
; FORMAT={-:-/ absolute / metric / decimal}
; #@! TF.CreationDate,2025-11-13T20:31:36-08:00
; #@! TF.GenerationSoftware,Kicad,Pcbnew,9.0.6
; #@! TF.FileFunction,Plated,1,2,PTH
FMAT,2
METRIC
; #@! TA.AperFunction,Plated,PTH,ViaDrill
T1C0.400
; #@! TA.AperFunction,Plated,PTH,ComponentDrill
T2C0.500
; #@! TA.AperFunction,Plated,PTH,ComponentDrill
T3C0.813
; #@! TA.AperFunction,Plated,PTH,ComponentDrill
T4C0.900
; #@! TA.AperFunction,Plated,PTH,ComponentDrill
T5C1.400
; #@! TA.AperFunction,Plated,PTH,ComponentDrill
T6C2.200
%
G90
G05
T1
X99.568Y-85.598
X129.934Y-116.502
X136.652Y-103.251
X138.352Y-87.51
X138.43Y-107.442
X139.852Y-87.534
X160.02Y-89.281
X160.11Y-88.054
X166.714Y-104.818
X173.748Y-114.802
T3
X132.485Y-85.768
X132.485Y-88.308
X132.485Y-90.848
X132.485Y-93.388
X132.485Y-95.928
X132.485Y-98.468
X132.485Y-101.008
X132.485Y-103.548
X132.485Y-106.088
X132.485Y-108.628
X132.485Y-111.168
X132.485Y-113.708
X134.76Y-83.736
X146.19Y-83.736
X147.705Y-85.768
X147.705Y-88.308
X147.705Y-90.848
X147.705Y-93.388
X147.705Y-95.928
X147.705Y-98.468
X147.705Y-101.008
X147.705Y-103.548
X147.705Y-106.088
X147.705Y-108.628
X147.705Y-111.168
X147.705Y-113.708
X152.909Y-85.768
X152.909Y-88.308
X152.909Y-90.848
X152.909Y-93.388
X152.909Y-95.928
X152.909Y-98.468
X152.909Y-101.008
X152.909Y-103.548
X152.909Y-106.088
X152.909Y-108.628
X152.909Y-111.168
X152.909Y-113.708
X155.03Y-83.482
X166.46Y-83.482
X168.129Y-85.768
X168.129Y-88.308
X168.129Y-90.848
X168.129Y-93.388
X168.129Y-95.928
X168.129Y-98.468
X168.129Y-101.008
X168.129Y-103.548
X168.129Y-106.088
X168.129Y-108.628
X168.129Y-111.168
X168.129Y-113.708
T5
X41.2Y-74.45
X41.2Y-93.45
X41.2Y-112.45
X42.5Y-73.0
X42.5Y-92.0
X42.5Y-111.0
X60.2Y-62.45
X60.2Y-81.524
X60.208Y-100.574
X61.5Y-61.0
X61.5Y-80.074
X61.508Y-99.124
X79.2Y-56.31
X79.2Y-75.328
X79.2Y-94.346
X80.5Y-54.86
X80.5Y-73.878
X80.5Y-92.896
X98.194Y-60.882
X98.2Y-79.9
X98.2Y-98.918
X99.494Y-59.432
X99.5Y-78.45
X99.5Y-97.468
X108.261Y-120.841
X109.892Y-119.777
X117.18Y-82.44
X117.18Y-101.458
X117.2Y-63.45
X118.48Y-80.99
X118.48Y-100.008
X118.5Y-62.0
X128.934Y-128.396
X130.785Y-127.79
X164.685Y-132.234
X165.086Y-130.328
X175.786Y-63.45
X175.786Y-82.44
X175.786Y-101.458
X177.086Y-62.0
X177.086Y-80.99
X177.086Y-100.008
X184.849Y-122.93
X185.73Y-121.193
X194.786Y-60.818
X194.786Y-79.868
X194.786Y-98.918
X196.086Y-59.368
X196.086Y-78.418
X196.086Y-97.468
X213.788Y-56.31
X213.788Y-75.328
X213.788Y-94.346
X215.088Y-54.86
X215.088Y-73.878
X215.088Y-92.896
X232.814Y-62.45
X232.814Y-81.424
X232.814Y-100.442
X234.114Y-61.0
X234.114Y-79.974
X234.114Y-98.992
X251.832Y-74.45
X251.832Y-93.45
X251.832Y-112.45
X253.132Y-73.0
X253.132Y-92.0
X253.132Y-111.0
T6
X73.152Y-75.184
X92.202Y-56.134
X92.202Y-94.234
X111.252Y-75.184
X189.22Y-75.311
X208.27Y-56.261
X208.27Y-94.361
X227.32Y-75.311
T2
G00X39.65Y-80.9
M15
G01X40.15Y-80.9
M16
G05
G00X39.65Y-99.9
M15
G01X40.15Y-99.9
M16
G05
G00X39.65Y-118.9
M15
G01X40.15Y-118.9
M16
G05
G00X44.75Y-82.9
M15
G01X45.25Y-82.9
M16
G05
G00X44.75Y-101.9
M15
G01X45.25Y-101.9
M16
G05
G00X44.75Y-120.9
M15
G01X45.25Y-120.9
M16
G05
G00X49.75Y-71.452
M15
G01X50.25Y-71.448
M16
G05
G00X49.75Y-90.452
M15
G01X50.25Y-90.448
M16
G05
G00X49.75Y-109.452
M15
G01X50.25Y-109.448
M16
G05
G00X58.65Y-68.9
M15
G01X59.15Y-68.9
M16
G05
G00X58.65Y-87.974
M15
G01X59.15Y-87.974
M16
G05
G00X58.658Y-107.024
M15
G01X59.158Y-107.024
M16
G05
G00X63.75Y-70.9
M15
G01X64.25Y-70.9
M16
G05
G00X63.75Y-89.974
M15
G01X64.25Y-89.974
M16
G05
G00X63.758Y-109.024
M15
G01X64.258Y-109.024
M16
G05
G00X68.75Y-59.452
M15
G01X69.25Y-59.448
M16
G05
G00X68.75Y-78.526
M15
G01X69.25Y-78.522
M16
G05
G00X68.758Y-97.576
M15
G01X69.258Y-97.572
M16
G05
G00X77.65Y-62.76
M15
G01X78.15Y-62.76
M16
G05
G00X77.65Y-81.778
M15
G01X78.15Y-81.778
M16
G05
G00X77.65Y-100.796
M15
G01X78.15Y-100.796
M16
G05
G00X82.75Y-64.76
M15
G01X83.25Y-64.76
M16
G05
G00X82.75Y-83.778
M15
G01X83.25Y-83.778
M16
G05
G00X82.75Y-102.796
M15
G01X83.25Y-102.796
M16
G05
G00X87.75Y-53.312
M15
G01X88.25Y-53.308
M16
G05
G00X87.75Y-72.33
M15
G01X88.25Y-72.326
M16
G05
G00X87.75Y-91.348
M15
G01X88.25Y-91.344
M16
G05
G00X96.644Y-67.332
M15
G01X97.144Y-67.332
M16
G05
G00X96.65Y-86.35
M15
G01X97.15Y-86.35
M16
G05
G00X96.65Y-105.368
M15
G01X97.15Y-105.368
M16
G05
G00X101.744Y-69.332
M15
G01X102.244Y-69.332
M16
G05
G00X101.75Y-88.35
M15
G01X102.25Y-88.35
M16
G05
G00X101.75Y-107.368
M15
G01X102.25Y-107.368
M16
G05
G00X105.095Y-126.67
M15
G01X105.578Y-126.8
M16
G05
G00X106.744Y-57.884
M15
G01X107.244Y-57.88
M16
G05
G00X106.75Y-76.902
M15
G01X107.25Y-76.898
M16
G05
G00X106.75Y-95.92
M15
G01X107.25Y-95.916
M16
G05
G00X109.503Y-129.922
M15
G01X109.986Y-130.052
M16
G05
G00X115.63Y-88.89
M15
G01X116.13Y-88.89
M16
G05
G00X115.63Y-107.908
M15
G01X116.13Y-107.908
M16
G05
G00X115.65Y-69.9
M15
G01X116.15Y-69.9
M16
G05
G00X117.296Y-120.159
M15
G01X117.78Y-120.284
M16
G05
G00X120.73Y-90.89
M15
G01X121.23Y-90.89
M16
G05
G00X120.73Y-109.908
M15
G01X121.23Y-109.908
M16
G05
G00X120.75Y-71.9
M15
G01X121.25Y-71.9
M16
G05
G00X124.367Y-133.206
M15
G01X124.8Y-133.456
M16
G05
G00X125.73Y-79.442
M15
G01X126.23Y-79.438
M16
G05
G00X125.73Y-98.46
M15
G01X126.23Y-98.456
M16
G05
G00X125.75Y-60.452
M15
G01X126.25Y-60.448
M16
G05
G00X127.783Y-137.489
M15
G01X128.217Y-137.739
M16
G05
G00X137.838Y-130.074
M15
G01X138.273Y-130.321
M16
G05
G00X166.568Y-138.594
M15
G01X167.001Y-138.344
M16
G05
G00X170.591Y-125.362
M15
G01X171.022Y-125.109
M16
G05
G00X171.984Y-137.777
M15
G01X172.418Y-137.527
M16
G05
G00X174.236Y-69.9
M15
G01X174.736Y-69.9
M16
G05
G00X174.236Y-88.89
M15
G01X174.736Y-88.89
M16
G05
G00X174.236Y-107.908
M15
G01X174.736Y-107.908
M16
G05
G00X179.336Y-71.9
M15
G01X179.836Y-71.9
M16
G05
G00X179.336Y-90.89
M15
G01X179.836Y-90.89
M16
G05
G00X179.336Y-109.908
M15
G01X179.836Y-109.908
M16
G05
G00X184.336Y-60.452
M15
G01X184.836Y-60.448
M16
G05
G00X184.336Y-79.442
M15
G01X184.836Y-79.438
M16
G05
G00X184.336Y-98.46
M15
G01X184.836Y-98.456
M16
G05
G00X185.022Y-129.562
M15
G01X185.504Y-129.432
M16
G05
G00X190.465Y-130.174
M15
G01X190.948Y-130.044
M16
G05
G00X192.332Y-117.822
M15
G01X192.814Y-117.688
M16
G05
G00X193.236Y-67.268
M15
G01X193.736Y-67.268
M16
G05
G00X193.236Y-86.318
M15
G01X193.736Y-86.318
M16
G05
G00X193.236Y-105.368
M15
G01X193.736Y-105.368
M16
G05
G00X198.336Y-69.268
M15
G01X198.836Y-69.268
M16
G05
G00X198.336Y-88.318
M15
G01X198.836Y-88.318
M16
G05
G00X198.336Y-107.368
M15
G01X198.836Y-107.368
M16
G05
G00X203.336Y-57.82
M15
G01X203.836Y-57.816
M16
G05
G00X203.336Y-76.87
M15
G01X203.836Y-76.866
M16
G05
G00X203.336Y-95.92
M15
G01X203.836Y-95.916
M16
G05
G00X212.238Y-62.76
M15
G01X212.738Y-62.76
M16
G05
G00X212.238Y-81.778
M15
G01X212.738Y-81.778
M16
G05
G00X212.238Y-100.796
M15
G01X212.738Y-100.796
M16
G05
G00X217.338Y-64.76
M15
G01X217.838Y-64.76
M16
G05
G00X217.338Y-83.778
M15
G01X217.838Y-83.778
M16
G05
G00X217.338Y-102.796
M15
G01X217.838Y-102.796
M16
G05
G00X222.338Y-53.312
M15
G01X222.838Y-53.308
M16
G05
G00X222.338Y-72.33
M15
G01X222.838Y-72.326
M16
G05
G00X222.338Y-91.348
M15
G01X222.838Y-91.344
M16
G05
G00X231.264Y-68.9
M15
G01X231.764Y-68.9
M16
G05
G00X231.264Y-87.874
M15
G01X231.764Y-87.874
M16
G05
G00X231.264Y-106.892
M15
G01X231.764Y-106.892
M16
G05
G00X236.364Y-70.9
M15
G01X236.864Y-70.9
M16
G05
G00X236.364Y-89.874
M15
G01X236.864Y-89.874
M16
G05
G00X236.364Y-108.892
M15
G01X236.864Y-108.892
M16
G05
G00X241.364Y-59.452
M15
G01X241.864Y-59.448
M16
G05
G00X241.364Y-78.426
M15
G01X241.864Y-78.422
M16
G05
G00X241.364Y-97.444
M15
G01X241.864Y-97.44
M16
G05
G00X250.282Y-80.9
M15
G01X250.782Y-80.9
M16
G05
G00X250.282Y-99.9
M15
G01X250.782Y-99.9
M16
G05
G00X250.282Y-118.9
M15
G01X250.782Y-118.9
M16
G05
G00X255.382Y-82.9
M15
G01X255.882Y-82.9
M16
G05
G00X255.382Y-101.9
M15
G01X255.882Y-101.9
M16
G05
G00X255.382Y-120.9
M15
G01X255.882Y-120.9
M16
G05
G00X260.382Y-71.452
M15
G01X260.882Y-71.448
M16
G05
G00X260.382Y-90.452
M15
G01X260.882Y-90.448
M16
G05
G00X260.382Y-109.452
M15
G01X260.882Y-109.448
M16
G05
T4
G00X134.67Y-121.004
M15
G01X135.07Y-121.004
M16
G05
G00X135.09Y-116.434
M15
G01X134.69Y-116.434
M16
G05
G00X135.77Y-116.404
M15
G01X136.17Y-116.404
M16
G05
G00X136.19Y-121.034
M15
G01X135.79Y-121.034
M16
G05
G00X139.77Y-116.404
M15
G01X140.17Y-116.404
M16
G05
G00X140.19Y-121.034
M15
G01X139.79Y-121.034
M16
G05
G00X142.77Y-116.404
M15
G01X143.17Y-116.404
M16
G05
G00X143.19Y-121.034
M15
G01X142.79Y-121.034
M16
G05
G00X157.268Y-116.434
M15
G01X157.668Y-116.434
M16
G05
G00X157.688Y-121.064
M15
G01X157.288Y-121.064
M16
G05
G00X160.268Y-116.434
M15
G01X160.668Y-116.434
M16
G05
G00X160.688Y-121.064
M15
G01X160.288Y-121.064
M16
G05
G00X164.268Y-116.434
M15
G01X164.668Y-116.434
M16
G05
G00X164.688Y-121.064
M15
G01X164.288Y-121.064
M16
G05
G00X165.368Y-121.034
M15
G01X165.768Y-121.034
M16
G05
G00X165.788Y-116.464
M15
G01X165.388Y-116.464
M16
G05
T5
G00X47.5Y-71.925
M15
G01X47.5Y-72.475
M16
G05
G00X47.5Y-90.925
M15
G01X47.5Y-91.475
M16
G05
G00X47.5Y-109.925
M15
G01X47.5Y-110.475
M16
G05
G00X66.5Y-59.925
M15
G01X66.5Y-60.475
M16
G05
G00X66.5Y-78.999
M15
G01X66.5Y-79.549
M16
G05
G00X66.508Y-98.049
M15
G01X66.508Y-98.599
M16
G05
G00X85.5Y-53.785
M15
G01X85.5Y-54.335
M16
G05
G00X85.5Y-72.803
M15
G01X85.5Y-73.353
M16
G05
G00X85.5Y-91.821
M15
G01X85.5Y-92.371
M16
G05
G00X104.494Y-58.357
M15
G01X104.494Y-58.907
M16
G05
G00X104.5Y-77.375
M15
G01X104.5Y-77.925
M16
G05
G00X104.5Y-96.393
M15
G01X104.5Y-96.943
M16
G05
G00X115.0Y-120.033
M15
G01X114.858Y-120.564
M16
G05
G00X123.48Y-79.915
M15
G01X123.48Y-80.465
M16
G05
G00X123.48Y-98.933
M15
G01X123.48Y-99.483
M16
G05
G00X123.5Y-60.925
M15
G01X123.5Y-61.475
M16
G05
G00X135.653Y-129.359
M15
G01X135.378Y-129.835
M16
G05
G00X168.879Y-126.897
M15
G01X169.154Y-127.373
M16
G05
G00X182.086Y-60.925
M15
G01X182.086Y-61.475
M16
G05
G00X182.086Y-79.915
M15
G01X182.086Y-80.465
M16
G05
G00X182.086Y-98.933
M15
G01X182.086Y-99.483
M16
G05
G00X190.281Y-118.861
M15
G01X190.423Y-119.392
M16
G05
G00X201.086Y-58.293
M15
G01X201.086Y-58.843
M16
G05
G00X201.086Y-77.343
M15
G01X201.086Y-77.893
M16
G05
G00X201.086Y-96.393
M15
G01X201.086Y-96.943
M16
G05
G00X220.088Y-53.785
M15
G01X220.088Y-54.335
M16
G05
G00X220.088Y-72.803
M15
G01X220.088Y-73.353
M16
G05
G00X220.088Y-91.821
M15
G01X220.088Y-92.371
M16
G05
G00X239.114Y-59.925
M15
G01X239.114Y-60.475
M16
G05
G00X239.114Y-78.899
M15
G01X239.114Y-79.449
M16
G05
G00X239.114Y-97.917
M15
G01X239.114Y-98.467
M16
G05
G00X258.132Y-71.925
M15
G01X258.132Y-72.475
M16
G05
G00X258.132Y-90.925
M15
G01X258.132Y-91.475
M16
G05
G00X258.132Y-109.925
M15
G01X258.132Y-110.475
M16
G05
M30
