M48
; DRILL file {KiCad 9.0.6} date 2025-11-13T20:31:36-0800
; FORMAT={-:-/ absolute / metric / decimal}
; #@! TF.CreationDate,2025-11-13T20:31:36-08:00
; #@! TF.GenerationSoftware,Kicad,Pcbnew,9.0.6
; #@! TF.FileFunction,NonPlated,1,2,NPTH
FMAT,2
METRIC
; #@! TA.AperFunction,NonPlated,NPTH,ComponentDrill
T1C0.500
; #@! TA.AperFunction,NonPlated,NPTH,ComponentDrill
T2C0.800
; #@! TA.AperFunction,NonPlated,NPTH,ComponentDrill
T3C0.900
; #@! TA.AperFunction,NonPlated,NPTH,ComponentDrill
T4C1.700
; #@! TA.AperFunction,NonPlated,NPTH,ComponentDrill
T5C1.800
; #@! TA.AperFunction,NonPlated,NPTH,ComponentDrill
T6C4.900
%
G90
G05
T1
X149.225Y-88.646
X149.225Y-89.662
X149.225Y-90.678
X149.225Y-91.694
X149.225Y-92.71
X149.225Y-109.156
X149.225Y-110.172
X149.225Y-111.188
X149.225Y-112.204
X149.225Y-113.221
X151.257Y-88.646
X151.257Y-89.662
X151.257Y-90.678
X151.257Y-91.694
X151.257Y-92.71
X151.257Y-109.156
X151.257Y-110.172
X151.257Y-111.188
X151.257Y-112.204
X151.257Y-113.221
T2
X137.59Y-118.734
X144.59Y-118.734
X155.868Y-118.734
X162.868Y-118.734
T3
X139.102Y-83.99
X142.102Y-83.99
X159.372Y-84.498
X162.372Y-84.498
T4
X39.92Y-77.0
X39.92Y-96.0
X39.92Y-115.0
X50.08Y-77.0
X50.08Y-96.0
X50.08Y-115.0
X58.92Y-65.0
X58.92Y-84.074
X58.928Y-103.124
X69.08Y-65.0
X69.08Y-84.074
X69.088Y-103.124
X77.92Y-58.86
X77.92Y-77.878
X77.92Y-96.896
X88.08Y-58.86
X88.08Y-77.878
X88.08Y-96.896
X96.914Y-63.432
X96.92Y-82.45
X96.92Y-101.468
X106.365Y-122.973
X107.074Y-63.432
X107.08Y-82.45
X107.08Y-101.468
X115.9Y-84.99
X115.9Y-104.008
X115.92Y-66.0
X116.179Y-125.603
X126.06Y-84.99
X126.06Y-104.008
X126.08Y-66.0
X126.551Y-129.964
X135.349Y-135.044
X164.852Y-135.082
X173.65Y-130.002
X174.506Y-66.0
X174.506Y-84.99
X174.506Y-104.008
X184.273Y-125.725
X184.666Y-66.0
X184.666Y-84.99
X184.666Y-104.008
X193.506Y-63.368
X193.506Y-82.418
X193.506Y-101.468
X194.087Y-123.095
X203.666Y-63.368
X203.666Y-82.418
X203.666Y-101.468
X212.508Y-58.86
X212.508Y-77.878
X212.508Y-96.896
X222.668Y-58.86
X222.668Y-77.878
X222.668Y-96.896
X231.534Y-65.0
X231.534Y-83.974
X231.534Y-102.992
X241.694Y-65.0
X241.694Y-83.974
X241.694Y-102.992
X250.552Y-77.0
X250.552Y-96.0
X250.552Y-115.0
X260.712Y-77.0
X260.712Y-96.0
X260.712Y-115.0
T5
X39.5Y-77.0
X39.5Y-96.0
X39.5Y-115.0
X50.5Y-77.0
X50.5Y-96.0
X50.5Y-115.0
X58.5Y-65.0
X58.5Y-84.074
X58.508Y-103.124
X69.5Y-65.0
X69.5Y-84.074
X69.508Y-103.124
X77.5Y-58.86
X77.5Y-77.878
X77.5Y-96.896
X88.5Y-58.86
X88.5Y-77.878
X88.5Y-96.896
X96.494Y-63.432
X96.5Y-82.45
X96.5Y-101.468
X105.959Y-122.864
X107.494Y-63.432
X107.5Y-82.45
X107.5Y-101.468
X115.48Y-84.99
X115.48Y-104.008
X115.5Y-66.0
X116.585Y-125.712
X126.187Y-129.754
X126.48Y-84.99
X126.48Y-104.008
X126.5Y-66.0
X135.713Y-135.254
X164.488Y-135.292
X174.014Y-129.792
X174.086Y-66.0
X174.086Y-84.99
X174.086Y-104.008
X183.867Y-125.834
X185.086Y-66.0
X185.086Y-84.99
X185.086Y-104.008
X193.086Y-63.368
X193.086Y-82.418
X193.086Y-101.468
X194.492Y-122.986
X204.086Y-63.368
X204.086Y-82.418
X204.086Y-101.468
X212.088Y-58.86
X212.088Y-77.878
X212.088Y-96.896
X223.088Y-58.86
X223.088Y-77.878
X223.088Y-96.896
X231.114Y-65.0
X231.114Y-83.974
X231.114Y-102.992
X242.114Y-65.0
X242.114Y-83.974
X242.114Y-102.992
X250.132Y-77.0
X250.132Y-96.0
X250.132Y-115.0
X261.132Y-77.0
X261.132Y-96.0
X261.132Y-115.0
T6
X45.0Y-77.0
X45.0Y-96.0
X45.0Y-115.0
X64.0Y-65.0
X64.0Y-84.074
X64.008Y-103.124
X83.0Y-58.86
X83.0Y-77.878
X83.0Y-96.896
X101.994Y-63.432
X102.0Y-82.45
X102.0Y-101.468
X111.272Y-124.288
X120.98Y-84.99
X120.98Y-104.008
X121.0Y-66.0
X130.95Y-132.504
X169.251Y-132.542
X179.586Y-66.0
X179.586Y-84.99
X179.586Y-104.008
X189.18Y-124.41
X198.586Y-63.368
X198.586Y-82.418
X198.586Y-101.468
X217.588Y-58.86
X217.588Y-77.878
X217.588Y-96.896
X236.614Y-65.0
X236.614Y-83.974
X236.614Y-102.992
X255.632Y-77.0
X255.632Y-96.0
X255.632Y-115.0
M30
